<svg xmlns="http://www.w3.org/2000/svg" xmlns:xlink="http://www.w3.org/1999/xlink" width="381.876" height="162.569" viewBox="0 0 381.876 162.569">
  <defs>
    <clipPath id="clip-path">
      <rect id="Rectangle_369" data-name="Rectangle 369" width="381.876" height="162.569" transform="translate(381.876 162.569) rotate(180)" fill="none" stroke="#fff" stroke-width="1"/>
    </clipPath>
  </defs>
  <g id="ArtWorkMenuEN" transform="translate(381.876 162.569) rotate(180)" opacity="0.25" clip-path="url(#clip-path)">
    <g id="Group_1186" data-name="Group 1186" transform="translate(51.756 103.414)" style="isolation: isolate">
      <path id="Path_1331" data-name="Path 1331" d="M9.536,5.685a41.952,41.952,0,0,0-8.628,6.8L0,13.421l1.007.83A62.016,62.016,0,0,0,21.193,25.074l1.166.332.337-1.158c.094-.324,2.28-8.106-.365-22.833L22.077,0,20.719.491A63.274,63.274,0,0,0,9.536,5.685Z" transform="translate(0 0)" fill="none" stroke="#fff" stroke-width="1"/>
    </g>
    <g id="Group_1187" data-name="Group 1187" transform="translate(131.575 117.818)" style="isolation: isolate">
      <path id="Path_1332" data-name="Path 1332" d="M8.181,3.424A25.092,25.092,0,0,0,2.406.28L1.675,0,1.45.746A36.644,36.644,0,0,0,.159,14.328l.086.716.72-.084c.2-.024,5.021-.638,12.563-5.52l.724-.469-.588-.628A37.624,37.624,0,0,0,8.181,3.424Z" transform="translate(0 0)" fill="none" stroke="#fff" stroke-width="1"/>
    </g>
    <g id="Group_1188" data-name="Group 1188" transform="translate(169.113 74.222)" style="isolation: isolate">
      <path id="Path_1333" data-name="Path 1333" d="M9.507,5.484a41.44,41.44,0,0,0-8.6,6.625L0,13.025l.986.832a61.288,61.288,0,0,0,19.83,10.911l1.15.341.346-1.142c.1-.319,2.341-7.985-.114-22.567L21.961,0,20.613.471A62.436,62.436,0,0,0,9.507,5.484Z" transform="translate(0 0)" fill="none" stroke="#fff" stroke-width="1"/>
    </g>
    <g id="Group_1189" data-name="Group 1189" transform="translate(199.523 37.66)" style="isolation: isolate">
      <path id="Path_1334" data-name="Path 1334" d="M10.267,4.119A41.575,41.575,0,0,0,1,9.784L0,10.6l.891.933A61.154,61.154,0,0,0,19.424,24.5l1.105.464.468-1.1c.131-.308,3.192-7.69,2.328-22.45L23.243,0,21.852.322A62.559,62.559,0,0,0,10.267,4.119Z" transform="translate(0 0)" fill="none" stroke="#fff" stroke-width="1"/>
    </g>
    <g id="Group_1190" data-name="Group 1190" transform="translate(75.684 14.299)" style="isolation: isolate">
      <path id="Path_1335" data-name="Path 1335" d="M15.311,6.916A40.808,40.808,0,0,0,6.7.608L5.585,0,5.06,1.152A59.488,59.488,0,0,0,.017,22.74L0,23.91l1.179.02c.33,0,8.223.055,21.427-6.175l1.269-.6-.81-1.14A61.121,61.121,0,0,0,15.311,6.916Z" transform="translate(0 0)" fill="none" stroke="#fff" stroke-width="1"/>
    </g>
    <g id="Group_1191" data-name="Group 1191" transform="translate(90.783 50.636)" style="isolation: isolate">
      <path id="Path_1336" data-name="Path 1336" d="M20.8,7.737A82.89,82.89,0,0,0,2.035,18.727L0,20.321l1.753,1.907A123.287,123.287,0,0,0,38.475,48.992l2.2.973.974-2.184c.271-.608,6.657-15.292,5.419-44.935L46.948,0l-2.8.592A125.234,125.234,0,0,0,20.8,7.737Z" transform="translate(0 0)" fill="none" stroke="#fff" stroke-width="1"/>
    </g>
    <g id="Group_1192" data-name="Group 1192" transform="translate(-135.917 -53.204)" style="isolation: isolate">
      <path id="Path_1337" data-name="Path 1337" d="M114.453,47.057A356.22,356.22,0,0,0,31.78,3.785L21.34,0,18.308,10.673C-9.579,108.762,2.541,200.481,3.072,204.34l1.4,10.174,10.2-1.394c2.85-.394,71.12-10.376,177.03-81.8l10.168-6.858-8.49-8.811C166.778,88.029,140.772,65.377,114.453,47.057Z" fill="none" stroke="#fff" stroke-width="1"/>
    </g>
    <g id="Group_1193" data-name="Group 1193" transform="translate(252.016 89.233)" style="isolation: isolate">
      <path id="Path_1338" data-name="Path 1338" d="M3.632,3.287A18.327,18.327,0,0,0,.333,6.8L0,7.268l.493.3a27.249,27.249,0,0,0,9.481,3.384l.529.07.07-.526c.018-.146.457-3.67-1.665-9.894l-.2-.6L8.147.3A27.8,27.8,0,0,0,3.632,3.287Z" transform="translate(0 0)" fill="none" stroke="#fff" stroke-width="1"/>
    </g>
    <g id="Group_1194" data-name="Group 1194" transform="translate(301.369 52.62)" style="isolation: isolate">
      <path id="Path_1339" data-name="Path 1339" d="M6.115,2.6A18.472,18.472,0,0,0,1.917.214L1.383,0,1.208.544A26.914,26.914,0,0,0,.077,10.5l.055.528.531-.053c.147-.015,3.7-.4,9.3-3.888l.538-.333-.422-.471A27.743,27.743,0,0,0,6.115,2.6Z" transform="translate(0 0)" fill="none" stroke="#fff" stroke-width="1"/>
    </g>
    <g id="Group_1195" data-name="Group 1195" transform="translate(335.706 98.546)" style="isolation: isolate">
      <path id="Path_1340" data-name="Path 1340" d="M4.745,0A16.435,16.435,0,0,0,.492.535L0,.665l.168.478A23.988,23.988,0,0,0,4.7,8.8l.323.344.346-.319c.1-.09,2.4-2.243,4.506-7.682l.2-.522L9.523.511A24.685,24.685,0,0,0,4.745,0Z" transform="translate(0 0)" fill="none" stroke="#fff" stroke-width="1" style="mix-blend-mode: multiply;isolation: isolate"/>
    </g>
    <g id="Group_1196" data-name="Group 1196" transform="translate(207.868 118.039)" style="isolation: isolate">
      <path id="Path_1341" data-name="Path 1341" d="M8.755,2.567A30.274,30.274,0,0,0,1.218.165L.291,0,.2.932a44.016,44.016,0,0,0,1.59,16.325l.267.826.83-.264c.232-.073,5.781-1.893,13.563-9.364l.748-.718-.838-.61A45.45,45.45,0,0,0,8.755,2.567Z" transform="translate(0 0)" fill="none" stroke="#fff" stroke-width="1"/>
    </g>
    <g id="Group_1197" data-name="Group 1197" transform="translate(-5.941 129.386)" style="isolation: isolate">
      <path id="Path_1342" data-name="Path 1342" d="M13.974,0A48.445,48.445,0,0,0,1.451,1.574L0,1.959.493,3.369A70.542,70.542,0,0,0,13.841,25.908l.945,1.015,1.022-.938c.285-.262,7.077-6.607,13.268-22.62l.595-1.537-1.625-.321A72.742,72.742,0,0,0,13.974,0Z" transform="translate(0 0)" fill="none" stroke="#fff" stroke-width="1"/>
    </g>
  </g>
</svg>
