<svg xmlns="http://www.w3.org/2000/svg" xmlns:xlink="http://www.w3.org/1999/xlink" width="381.876" height="162.569" viewBox="0 0 381.876 162.569">
  <defs>
    <clipPath id="clip-path">
      <rect id="Rectangle_369" data-name="Rectangle 369" width="381.876" height="162.569" transform="translate(381.876 162.569) rotate(180)" fill="none" stroke="#fff" stroke-width="1"/>
    </clipPath>
  </defs>
  <g id="ArtWorkMenu" opacity="0.25" clip-path="url(#clip-path)">
    <g id="Group_1186" data-name="Group 1186" transform="translate(51.756 33.749)" style="isolation: isolate">
      <path id="Path_1331" data-name="Path 1331" d="M9.536,19.72a41.952,41.952,0,0,1-8.628-6.8L0,11.985l1.007-.83A62.016,62.016,0,0,1,21.193.332L22.359,0,22.7,1.158c.094.324,2.28,8.106-.365,22.833l-.254,1.414-1.357-.491A63.274,63.274,0,0,1,9.536,19.72Z" fill="none" stroke="#fff" stroke-width="1"/>
    </g>
    <g id="Group_1187" data-name="Group 1187" transform="translate(131.575 29.708)" style="isolation: isolate">
      <path id="Path_1332" data-name="Path 1332" d="M8.181,11.62a25.092,25.092,0,0,1-5.775,3.144l-.732.28L1.45,14.3A36.644,36.644,0,0,1,.159.716L.245,0l.72.084c.2.024,5.021.638,12.563,5.52l.724.469-.588.628A37.624,37.624,0,0,1,8.181,11.62Z" transform="translate(0)" fill="none" stroke="#fff" stroke-width="1"/>
    </g>
    <g id="Group_1188" data-name="Group 1188" transform="translate(169.113 63.239)" style="isolation: isolate">
      <path id="Path_1333" data-name="Path 1333" d="M9.507,19.625A41.44,41.44,0,0,1,.908,13L0,12.083l.986-.832A61.288,61.288,0,0,1,20.815.341L21.965,0l.346,1.142c.1.319,2.341,7.985-.114,22.567l-.236,1.4-1.348-.471A62.436,62.436,0,0,1,9.507,19.625Z" fill="none" stroke="#fff" stroke-width="1"/>
    </g>
    <g id="Group_1189" data-name="Group 1189" transform="translate(199.523 99.946)" style="isolation: isolate">
      <path id="Path_1334" data-name="Path 1334" d="M10.267,20.845A41.575,41.575,0,0,1,1,15.18l-1-.815.891-.933A61.154,61.154,0,0,1,19.424.464L20.529,0,21,1.1c.131.308,3.192,7.69,2.328,22.45l-.083,1.416-1.391-.322A62.559,62.559,0,0,1,10.267,20.845Z" fill="none" stroke="#fff" stroke-width="1"/>
    </g>
    <g id="Group_1190" data-name="Group 1190" transform="translate(75.684 124.339)" style="isolation: isolate">
      <path id="Path_1335" data-name="Path 1335" d="M15.311,17.014A40.808,40.808,0,0,1,6.7,23.323l-1.116.608L5.06,22.778A59.488,59.488,0,0,1,.017,1.191L0,.02,1.179,0C1.509,0,9.4-.055,22.606,6.175l1.269.6-.81,1.14A61.121,61.121,0,0,1,15.311,17.014Z" transform="translate(0 0)" fill="none" stroke="#fff" stroke-width="1"/>
    </g>
    <g id="Group_1191" data-name="Group 1191" transform="translate(90.783 61.969)" style="isolation: isolate">
      <path id="Path_1336" data-name="Path 1336" d="M20.8,42.227A82.89,82.89,0,0,1,2.035,31.237L0,29.643l1.753-1.907A123.287,123.287,0,0,1,38.475.973L40.674,0l.974,2.184c.271.608,6.657,15.292,5.419,44.935l-.12,2.845-2.8-.592A125.234,125.234,0,0,1,20.8,42.227Z" fill="none" stroke="#fff" stroke-width="1"/>
    </g>
    <g id="Group_1192" data-name="Group 1192" transform="translate(-135.917 1.259)" style="isolation: isolate">
      <path id="Path_1337" data-name="Path 1337" d="M114.453,167.457A356.22,356.22,0,0,1,31.78,210.729l-10.44,3.785-3.032-10.673C-9.579,105.752,2.541,14.033,3.072,10.174L4.472,0l10.2,1.394c2.85.394,71.12,10.376,177.03,81.8l10.168,6.858-8.49,8.811C166.778,126.485,140.772,149.137,114.453,167.457Z" fill="none" stroke="#fff" stroke-width="1"/>
    </g>
    <g id="Group_1193" data-name="Group 1193" transform="translate(252.016 62.319)" style="isolation: isolate">
      <path id="Path_1338" data-name="Path 1338" d="M3.632,7.73a18.327,18.327,0,0,1-3.3-3.516L0,3.749l.493-.3A27.249,27.249,0,0,1,9.974.07L10.5,0l.07.526c.018.146.457,3.67-1.665,9.894l-.2.6-.558-.3A27.8,27.8,0,0,1,3.632,7.73Z" fill="none" stroke="#fff" stroke-width="1"/>
    </g>
    <g id="Group_1194" data-name="Group 1194" transform="translate(301.369 98.921)" style="isolation: isolate">
      <path id="Path_1339" data-name="Path 1339" d="M6.115,8.428a18.472,18.472,0,0,1-4.2,2.385l-.534.214-.175-.544A26.914,26.914,0,0,1,.077.528L.132,0,.663.053c.147.015,3.7.4,9.3,3.888l.538.333-.422.471A27.743,27.743,0,0,1,6.115,8.428Z" transform="translate(0)" fill="none" stroke="#fff" stroke-width="1"/>
    </g>
    <g id="Group_1195" data-name="Group 1195" transform="translate(335.706 54.88)" style="isolation: isolate">
      <path id="Path_1340" data-name="Path 1340" d="M4.745,9.143A16.435,16.435,0,0,1,.492,8.608L0,8.478.168,8A23.988,23.988,0,0,1,4.7.344L5.021,0l.346.319c.1.09,2.4,2.243,4.506,7.682l.2.522-.553.108A24.685,24.685,0,0,1,4.745,9.143Z" fill="none" stroke="#fff" stroke-width="1" style="mix-blend-mode: multiply;isolation: isolate"/>
    </g>
    <g id="Group_1196" data-name="Group 1196" transform="translate(207.868 26.446)" style="isolation: isolate">
      <path id="Path_1341" data-name="Path 1341" d="M8.755,15.517a30.274,30.274,0,0,1-7.538,2.4l-.927.165-.1-.932A44.016,44.016,0,0,1,1.785.826L2.052,0l.83.264c.232.073,5.781,1.893,13.563,9.364l.748.718-.838.61A45.45,45.45,0,0,1,8.755,15.517Z" transform="translate(0)" fill="none" stroke="#fff" stroke-width="1"/>
    </g>
    <g id="Group_1197" data-name="Group 1197" transform="translate(-5.941 6.261)" style="isolation: isolate">
      <path id="Path_1342" data-name="Path 1342" d="M13.974,26.923A48.445,48.445,0,0,1,1.451,25.349L0,24.964l.493-1.411A70.542,70.542,0,0,1,13.841,1.015L14.786,0l1.022.938c.285.262,7.077,6.607,13.268,22.62l.595,1.537-1.625.321A72.742,72.742,0,0,1,13.974,26.923Z" fill="none" stroke="#fff" stroke-width="1"/>
    </g>
  </g>
</svg>
