<svg xmlns="http://www.w3.org/2000/svg" width="47" height="47" viewBox="0 0 47 47">
  <g id="calenderYea" transform="translate(0.001 0)">
    <circle id="Circle" cx="23.5" cy="23.5" r="23.5" transform="translate(-0.001 0)" fill="#d4ebe2" opacity="0.5"/>
    <g id="Icon" transform="translate(10.097 8.902)">
      <path id="Vector" d="M.886,5.315A.892.892,0,0,1,0,4.429V.886A.892.892,0,0,1,.886,0a.892.892,0,0,1,.886.886V4.429A.892.892,0,0,1,.886,5.315Z" transform="translate(8.563 1.476)" fill="#066058"/>
      <path id="Vector-2" data-name="Vector" d="M.886,5.315A.892.892,0,0,1,0,4.429V.886A.892.892,0,0,1,.886,0a.892.892,0,0,1,.886.886V4.429A.892.892,0,0,1,.886,5.315Z" transform="translate(18.012 1.476)" fill="#066058"/>
      <path id="Vector-3" data-name="Vector" d="M1.181,2.348A1.242,1.242,0,0,1,.343,2,1.22,1.22,0,0,1,0,1.166,1.176,1.176,0,0,1,.094.718,1.364,1.364,0,0,1,.343.328a1.237,1.237,0,0,1,1.677,0,1.242,1.242,0,0,1,.343.839,1.775,1.775,0,0,1-.024.236.751.751,0,0,1-.071.213.894.894,0,0,1-.106.213L2.02,2A1.242,1.242,0,0,1,1.181,2.348Z" transform="translate(8.859 14.779)" fill="#066058"/>
      <path id="Vector-4" data-name="Vector" d="M1.181,2.356a1.176,1.176,0,0,1-.449-.094,1.219,1.219,0,0,1-.39-.248A1.22,1.22,0,0,1,0,1.175,1.176,1.176,0,0,1,.094.726,1.364,1.364,0,0,1,.343.336,1.219,1.219,0,0,1,.732.088,1.2,1.2,0,0,1,2.02.336a1.242,1.242,0,0,1,.343.839,1.775,1.775,0,0,1-.024.236.751.751,0,0,1-.071.213.894.894,0,0,1-.106.213,1.861,1.861,0,0,1-.142.177A1.242,1.242,0,0,1,1.181,2.356Z" transform="translate(12.993 14.771)" fill="#066058"/>
      <path id="Vector-5" data-name="Vector" d="M1.181,2.361a1.176,1.176,0,0,1-.449-.094,1.1,1.1,0,0,1-.39-.248,1.1,1.1,0,0,1-.248-.39A1.176,1.176,0,0,1,0,1.18,1.176,1.176,0,0,1,.094.731,1.1,1.1,0,0,1,.343.341,1.1,1.1,0,0,1,.732.093a1.129,1.129,0,0,1,.9,0,1.1,1.1,0,0,1,.39.248,1.1,1.1,0,0,1,.248.39,1.176,1.176,0,0,1,.094.449,1.176,1.176,0,0,1-.094.449,1.065,1.065,0,0,1-.638.638A1.176,1.176,0,0,1,1.181,2.361Z" transform="translate(8.859 18.9)" fill="#066058"/>
      <path id="Vector-6" data-name="Vector" d="M20.965,1.772H.886A.892.892,0,0,1,0,.886.892.892,0,0,1,.886,0H20.965a.892.892,0,0,1,.886.886A.892.892,0,0,1,20.965,1.772Z" transform="translate(3.248 9.851)" fill="#066058"/>
      <path id="Vector-7" data-name="Vector" d="M5.61,11.221a5.481,5.481,0,0,1-3.7-1.406A5.087,5.087,0,0,1,.8,8.492,5.545,5.545,0,0,1,0,5.61a5.61,5.61,0,0,1,11.221,0A5.519,5.519,0,0,1,10.406,8.5,5.591,5.591,0,0,1,5.61,11.221Zm0-9.449A3.846,3.846,0,0,0,1.772,5.61a3.743,3.743,0,0,0,.555,1.973,3.47,3.47,0,0,0,.744.9,3.748,3.748,0,0,0,2.539.969A3.844,3.844,0,0,0,9.449,5.61a3.923,3.923,0,0,0-.957-2.539A3.854,3.854,0,0,0,5.61,1.772Z" transform="translate(15.65 16.831)" fill="#066058"/>
      <path id="Vector-8" data-name="Vector" d="M2.052,4.1a.876.876,0,0,1-.626-.26L.257,2.667A.885.885,0,0,1,1.509,1.415l.567.567L3.966.234a.886.886,0,0,1,1.2,1.3L2.655,3.86A.924.924,0,0,1,2.052,4.1Z" transform="translate(18.535 20.401)" fill="#066058"/>
      <path id="Vector-9" data-name="Vector" d="M15.5,23.623H6.792C2.48,23.623,0,21.142,0,16.831V6.792C0,2.48,2.48,0,6.792,0h9.449c4.311,0,6.792,2.48,6.792,6.792v9.284a.889.889,0,0,1-1.559.579,3.841,3.841,0,0,0-6.721,2.539,3.743,3.743,0,0,0,.555,1.973,3.47,3.47,0,0,0,.744.9.878.878,0,0,1,.26.98A.845.845,0,0,1,15.5,23.623ZM6.792,1.772c-3.378,0-5.02,1.642-5.02,5.02v10.04c0,3.378,1.642,5.02,5.02,5.02h6.874a5.55,5.55,0,0,1-.673-2.658,5.6,5.6,0,0,1,8.268-4.937V6.792c0-3.378-1.642-5.02-5.02-5.02Z" transform="translate(2.658 3.248)" fill="#066058"/>
      <path id="Vector-10" data-name="Vector" d="M0,0H28.347V28.347H0Z" fill="none" opacity="0"/>
    </g>
  </g>
</svg>
