<svg xmlns="http://www.w3.org/2000/svg" width="77.619" height="75.314" viewBox="0 0 77.619 75.314">
  <g id="countIcon3" transform="translate(0)">
    <path id="Triangle" d="M561.877,5.93S598.5,30.515,600.758,74.043c0,0-34.549,16.533-77.619-.5.036,0,3.544-39,38.737-67.61" transform="translate(-523.14 -5.93)" fill="#e20000"/>
    <path id="Icon" d="M18,3.375A14.625,14.625,0,1,0,32.625,18,14.623,14.623,0,0,0,18,3.375Zm3.705,19.92L18,19.589l-3.705,3.705a1.124,1.124,0,1,1-1.589-1.589L16.411,18l-3.705-3.705a1.124,1.124,0,0,1,1.589-1.589L18,16.411l3.705-3.705a1.124,1.124,0,1,1,1.589,1.589L19.589,18l3.705,3.705a1.129,1.129,0,0,1,0,1.589A1.116,1.116,0,0,1,21.705,23.295Z" transform="translate(21.625 23.579)" fill="#fff"/>
  </g>
</svg>
