<svg xmlns="http://www.w3.org/2000/svg" width="27.492" height="21.3" viewBox="0 0 27.492 21.3">
  <path id="IconEdit" d="M9.623,10.65a5.413,5.413,0,0,0,5.5-5.325A5.413,5.413,0,0,0,9.623,0a5.413,5.413,0,0,0-5.5,5.325A5.413,5.413,0,0,0,9.623,10.65Zm3.849,1.331h-.717a7.7,7.7,0,0,1-6.263,0H5.774A5.686,5.686,0,0,0,0,17.572V19.3a2.031,2.031,0,0,0,2.062,2H13.871a1.939,1.939,0,0,1-.112-.886l.292-2.533.052-.462.339-.329,3.321-3.216a5.8,5.8,0,0,0-4.291-1.893Zm1.946,6.045-.292,2.538a.673.673,0,0,0,.756.732l2.616-.283,5.924-5.737-3.08-2.983-5.924,5.733Zm11.775-6.839L25.564,9.61a1.053,1.053,0,0,0-1.452,0l-1.624,1.572-.176.171L25.4,14.335l1.8-1.739a.98.98,0,0,0,0-1.41Z" fill="#fff"/>
</svg>
