<svg xmlns="http://www.w3.org/2000/svg" width="40.493" height="26.994" viewBox="0 0 40.493 26.994">
  <path id="IconSee" d="M39.523,26.993a8.121,8.121,0,0,1-4.071-1.61,2.726,2.726,0,0,0-3.389,0,8.809,8.809,0,0,1-10.245-.105,2.609,2.609,0,0,0-3.284.127,8.812,8.812,0,0,1-10.209-.12,2.651,2.651,0,0,0-3.312.141A7.972,7.972,0,0,1,.956,27,1.092,1.092,0,0,0,0,28.1v2.264a1.11,1.11,0,0,0,1.174,1.125,12.637,12.637,0,0,0,5.583-1.821,13.482,13.482,0,0,0,13.5,0,13.482,13.482,0,0,0,13.5,0,13,13,0,0,0,5.562,1.814,1.11,1.11,0,0,0,1.174-1.125V28.139a1.129,1.129,0,0,0-.97-1.146Zm0-10.125a8.121,8.121,0,0,1-4.071-1.61,2.726,2.726,0,0,0-3.389,0,8.809,8.809,0,0,1-10.245-.105,2.609,2.609,0,0,0-3.284.127,8.812,8.812,0,0,1-10.209-.12,2.651,2.651,0,0,0-3.312.141A7.972,7.972,0,0,1,.956,16.875,1.092,1.092,0,0,0,0,17.979v2.264a1.11,1.11,0,0,0,1.174,1.125,12.637,12.637,0,0,0,5.583-1.821,13.482,13.482,0,0,0,13.5,0,13.482,13.482,0,0,0,13.5,0,13,13,0,0,0,5.562,1.814,1.11,1.11,0,0,0,1.174-1.125V18.014a1.129,1.129,0,0,0-.97-1.146Zm0-10.125a8.185,8.185,0,0,1-4.071-1.61,2.726,2.726,0,0,0-3.389,0,8.809,8.809,0,0,1-10.245-.105,2.609,2.609,0,0,0-3.284.127,8.812,8.812,0,0,1-10.209-.12,2.651,2.651,0,0,0-3.312.141A7.972,7.972,0,0,1,.956,6.75,1.092,1.092,0,0,0,0,7.854v2.264a1.11,1.11,0,0,0,1.174,1.125A12.637,12.637,0,0,0,6.757,9.422a13.482,13.482,0,0,0,13.5,0,13.482,13.482,0,0,0,13.5,0,13,13,0,0,0,5.562,1.814,1.11,1.11,0,0,0,1.174-1.125V7.889a1.129,1.129,0,0,0-.97-1.146Z" transform="translate(0 -4.503)" fill="#3ca078"/>
</svg>
