<svg xmlns="http://www.w3.org/2000/svg" width="18.488" height="24.651" viewBox="0 0 18.488 24.651">
  <path id="IconRes" d="M13.866,12.325H4.622v3.081h9.244Zm4.285-7.27L13.438.337A1.155,1.155,0,0,0,12.619,0h-.294V6.163h6.163V5.869A1.152,1.152,0,0,0,18.151,5.055ZM10.785,6.548V0H1.156A1.153,1.153,0,0,0,0,1.156V23.5a1.153,1.153,0,0,0,1.156,1.156H17.333A1.153,1.153,0,0,0,18.488,23.5V7.7H11.94A1.159,1.159,0,0,1,10.785,6.548Zm-7.7-3.081a.385.385,0,0,1,.385-.385H7.318a.385.385,0,0,1,.385.385v.77a.385.385,0,0,1-.385.385H3.467a.385.385,0,0,1-.385-.385Zm0,3.081a.385.385,0,0,1,.385-.385H7.318a.385.385,0,0,1,.385.385v.77a.385.385,0,0,1-.385.385H3.467a.385.385,0,0,1-.385-.385ZM15.407,21.184a.385.385,0,0,1-.385.385H11.17a.385.385,0,0,1-.385-.385v-.77a.385.385,0,0,1,.385-.385h3.852a.385.385,0,0,1,.385.385Zm0-9.629v4.622a.77.77,0,0,1-.77.77H3.852a.77.77,0,0,1-.77-.77V11.555a.77.77,0,0,1,.77-.77H14.636A.77.77,0,0,1,15.407,11.555Z" fill="#fff"/>
</svg>
