<svg xmlns="http://www.w3.org/2000/svg" width="27.026" height="25.81" viewBox="0 0 27.026 25.81">
  <g id="IconPref" transform="translate(0)">
    <path id="Path_48242" data-name="Path 48242" d="M31.676,22.713V9.958A3.278,3.278,0,0,0,28.4,6.68H7.928A3.278,3.278,0,0,0,4.65,9.958V24.444a3.278,3.278,0,0,0,3.278,3.278H17.27V30.7H12.2a.894.894,0,1,0,0,1.788h11.92a.894.894,0,1,0,0-1.788H19.058v-2.98H28.4a3.278,3.278,0,0,0,3.278-3.278ZM6.438,9.958a1.49,1.49,0,0,1,1.49-1.49H28.4a1.49,1.49,0,0,1,1.49,1.49V22.713H6.438ZM28.4,25.934H7.928a1.49,1.49,0,0,1-1.49-1.49V22.713h23.45v1.731A1.49,1.49,0,0,1,28.4,25.934Z" transform="translate(-4.65 -6.68)" fill="#414141"/>
    <path id="Path_48245" data-name="Path 48245" d="M0,11.225v-.3A5.148,5.148,0,0,1,3.384,6.09h0A3.3,3.3,0,0,1,1.848,3.3h0A3.3,3.3,0,0,1,5.15,0h0a3.3,3.3,0,0,1,3.3,3.3h0A3.3,3.3,0,0,1,6.915,6.091h0A5.147,5.147,0,0,1,10.3,10.926h0v.3ZM6,6.457l-.035-.578A2.7,2.7,0,0,0,7.854,3.3h0A2.708,2.708,0,0,0,5.15.6h0a2.708,2.708,0,0,0-2.7,2.7h0A2.7,2.7,0,0,0,4.331,5.879h0L4.3,6.457a4.553,4.553,0,0,0-3.69,4.171H9.692A4.552,4.552,0,0,0,6,6.457H6" transform="translate(8.179 4.569)" fill="#414141"/>
  </g>
</svg>
