<svg id="IconProfile" xmlns="http://www.w3.org/2000/svg" xmlns:xlink="http://www.w3.org/1999/xlink" width="65.01" height="65.007" viewBox="0 0 65.01 65.007">
  <defs>
    <clipPath id="clip-path">
      <rect id="Rectangle_370" data-name="Rectangle 370" width="65.01" height="65.007" fill="#fff"/>
    </clipPath>
  </defs>
  <g id="Group_55528" data-name="Group 55528" clip-path="url(#clip-path)">
    <path id="Path_129942" data-name="Path 129942" d="M32.5,0a32.5,32.5,0,1,0,32.5,32.5A32.505,32.505,0,0,0,32.5,0m0,9.719A10.751,10.751,0,1,1,21.755,20.47,10.752,10.752,0,0,1,32.5,9.719M32.5,56.509a23.855,23.855,0,0,1-15.534-5.728A4.581,4.581,0,0,1,15.356,47.3a10.843,10.843,0,0,1,10.9-10.84h12.51A10.827,10.827,0,0,1,49.64,47.3a4.57,4.57,0,0,1-1.606,3.481A23.847,23.847,0,0,1,32.5,56.509" fill="#fff"/>
  </g>
</svg>
