<svg xmlns="http://www.w3.org/2000/svg" width="22.131" height="21.193" viewBox="0 0 22.131 21.193">
  <g id="IocnShop" transform="translate(0.75 0.75)">
    <path id="Path_130024" data-name="Path 130024" d="M13.876,30.938A.938.938,0,1,1,12.938,30,.938.938,0,0,1,13.876,30.938Z" transform="translate(-5.436 -12.182)" fill="none" stroke="#fff" stroke-linecap="round" stroke-linejoin="round" stroke-width="1.5"/>
    <path id="Path_130025" data-name="Path 130025" d="M30.376,30.938A.938.938,0,1,1,29.438,30,.938.938,0,0,1,30.376,30.938Z" transform="translate(-11.62 -12.182)" fill="none" stroke="#fff" stroke-linecap="round" stroke-linejoin="round" stroke-width="1.5"/>
    <path id="Path_130026" data-name="Path 130026" d="M1.5,1.5H5.251L7.764,14.057a1.876,1.876,0,0,0,1.876,1.51h9.115a1.876,1.876,0,0,0,1.876-1.51l1.5-7.868H6.189" transform="translate(-1.5 -1.5)" fill="none" stroke="#fff" stroke-linecap="round" stroke-linejoin="round" stroke-width="1.5"/>
  </g>
</svg>
