<svg xmlns="http://www.w3.org/2000/svg" width="28" height="26.818" viewBox="0 0 28 26.818">
  <g id="itmsImg" transform="translate(-0.5 -0.5)">
    <path id="Path_129939" data-name="Path 129939" d="M15,31.5A1.5,1.5,0,1,1,13.5,30,1.5,1.5,0,0,1,15,31.5Z" transform="translate(-2.45 -6.682)" fill="none" stroke="#fff" stroke-linecap="round" stroke-linejoin="round" stroke-width="2"/>
    <path id="Path_129940" data-name="Path 129940" d="M31.5,31.5A1.5,1.5,0,1,1,30,30,1.5,1.5,0,0,1,31.5,31.5Z" transform="translate(-7 -6.682)" fill="none" stroke="#fff" stroke-linecap="round" stroke-linejoin="round" stroke-width="2"/>
    <path id="Path_129941" data-name="Path 129941" d="M1.5,1.5H6.227L9.395,17.325a2.364,2.364,0,0,0,2.364,1.9H23.245a2.364,2.364,0,0,0,2.364-1.9L27.5,7.409H7.409" transform="translate(0 0)" fill="none" stroke="#fff" stroke-linecap="round" stroke-linejoin="round" stroke-width="2"/>
  </g>
</svg>
