<svg xmlns="http://www.w3.org/2000/svg" width="24" height="24" viewBox="0 0 24 24">
  <path id="langIcon" d="M12,.563a12,12,0,1,0,12,12A12,12,0,0,0,12,.563ZM19.742,10.99v.335a.75.75,0,0,1-.415.671l-.745.373a.749.749,0,0,1-.751-.047l-.881-.587a.751.751,0,0,0-.653-.088l-.128.043a.75.75,0,0,0-.387,1.127l.641.961a.749.749,0,0,0,.624.334h.4a.75.75,0,0,1,.75.75v.549a.751.751,0,0,1-.15.45l-.907,1.209A.754.754,0,0,0,17,17.38l-.208,1.1a.752.752,0,0,1-.23.414,7.723,7.723,0,0,0-1.21,1.411l-.63.946a1.343,1.343,0,0,1-2.318-.144A3.818,3.818,0,0,1,12,19.4V17.958a.75.75,0,0,0-.75-.75H10a2.643,2.643,0,0,1-2.643-2.643v-.68a2.644,2.644,0,0,1,1.057-2.115l1.335-1a2.645,2.645,0,0,1,1.586-.529h.043a2.638,2.638,0,0,1,1.182.279l.712.356a.749.749,0,0,0,.572.041l2.289-.763a.75.75,0,0,0-.237-1.461h-.488a.75.75,0,0,1-.53-.22l-.335-.335a.75.75,0,0,0-.53-.22H9.653a.75.75,0,0,1-.75-.75V6.954a.75.75,0,0,1,.568-.728l.7-.175a.751.751,0,0,0,.442-.312L11,5.154a.749.749,0,0,1,.624-.334H12.8a.75.75,0,0,0,.75-.75V3.02a9.691,9.691,0,0,1,7.835,7.22h-.892A.75.75,0,0,0,19.742,10.99Z" transform="translate(0 -0.563)" fill="#fff"/>
</svg>
