<svg id="MarkCall" xmlns="http://www.w3.org/2000/svg" width="77.619" height="75.314" viewBox="0 0 77.619 75.314">
  <path id="Triangle" d="M561.877,5.93S598.5,30.515,600.758,74.043c0,0-34.549,16.533-77.619-.5.036,0,3.544-39,38.737-67.61" transform="translate(-523.14 -5.93)" fill="#423d63"/>
  <path id="Icon" d="M30,3H6A3,3,0,0,0,3.015,6L3,33l6-6H30a3.009,3.009,0,0,0,3-3V6A3.009,3.009,0,0,0,30,3ZM27,21H9V18H27Zm0-4.5H9v-3H27ZM27,12H9V9H27Z" transform="translate(20.624 24.001)" fill="#fff"/>
</svg>
