<svg id="MarkBUY" xmlns="http://www.w3.org/2000/svg" width="48.451" height="46.827" viewBox="0 0 48.451 46.827">
  <path id="Triangle" d="M547.32,5.93s22.862,15.286,24.27,42.349c0,0-21.566,10.28-48.451-.313A67.012,67.012,0,0,1,547.32,5.93" transform="translate(-523.14 -5.93)" fill="#3ca078"/>
  <g id="Icon" transform="translate(10.829 15.687)">
    <path id="Path_4311" data-name="Path 4311" d="M122.747,290.55a.523.523,0,1,0-.714-.189.523.523,0,0,0,.714.189Zm0,0" transform="translate(-115.585 -274.441)" fill="#fff"/>
    <path id="Path_4312" data-name="Path 4312" d="M5.016,40.906l2.637,4.559a2.091,2.091,0,1,0,3.616-2.09L9.7,40.658l1.358-.784a.523.523,0,0,0,.189-.714l-.679-1.177,10.016-1.964a1.568,1.568,0,0,0,1.271-2.349l-1.74-3.009,1.11-1.681a.523.523,0,0,0,.017-.549L20.2,26.62a.523.523,0,0,0-.484-.261l-2.011.121-1.929-3.34a1.554,1.554,0,0,0-1.338-.784h-.02a1.554,1.554,0,0,0-1.323.723l-6.827,8.7L1.827,34.339a3.659,3.659,0,0,0,3.187,6.566ZM10.365,43.9a1.045,1.045,0,0,1-1.81,1.045L5.94,40.415,7.748,39.37,10.362,43.9ZM9.18,39.753l-.523-.905.905-.523.523.905ZM19.455,27.422l.722,1.251-.644.975-1.245-2.156Zm-5.481-3.77a.523.523,0,0,1,.9.01l6.076,10.53a.523.523,0,0,1-.439.783,1.919,1.919,0,0,0-.283.048L13.8,23.886c.135-.174.152-.189.18-.234ZM13.1,24.772l6.042,10.465-9.125,1.789-2.77-4.8ZM1.4,38.815a2.612,2.612,0,0,1,.956-3.566l4.074-2.356,2.614,4.529-4.074,2.35a2.616,2.616,0,0,1-3.57-.957Zm0,0" transform="translate(0.004 -21.189)" fill="#fff"/>
    <path id="Path_4313" data-name="Path 4313" d="M45.99,309.834a.523.523,0,0,0-.714-.189l-.905.523a.524.524,0,0,1-.714-.189.523.523,0,1,0-.905.523,1.57,1.57,0,0,0,2.142.574l.905-.523a.523.523,0,0,0,.189-.714Zm0,0" transform="translate(-40.447 -293.393)" fill="#fff"/>
    <path id="Path_4314" data-name="Path 4314" d="M439.457,42.547l-2.912,1.621a.523.523,0,1,0,.508.914l2.912-1.621a.523.523,0,0,0-.508-.914Zm0,0" transform="translate(-413.467 -40.262)" fill="#fff"/>
    <path id="Path_4315" data-name="Path 4315" d="M442.743,137.18l-2.019-.541a.523.523,0,1,0-.27,1.009l2.019.541a.523.523,0,1,0,.27-1.009Zm0,0" transform="translate(-417.057 -129.481)" fill="#fff"/>
    <path id="Path_4316" data-name="Path 4316" d="M384.052.387l-.541,2.019a.523.523,0,1,0,1.01.271l.541-2.016a.523.523,0,1,0-1.009-.274Zm0,0" transform="translate(-363.444 -0.002)" fill="#fff"/>
  </g>
</svg>
