<svg xmlns="http://www.w3.org/2000/svg" width="303.537" height="85.389" viewBox="0 0 303.537 85.389">
  <g id="new-logoEN" transform="translate(100.868 -1)">
    <g id="Saudi_Standard" data-name="Saudi Standard" transform="translate(0 56.477)">
      <path id="Path_1289" data-name="Path 1289" d="M0,84.141l.459-2.774a11.706,11.706,0,0,0,5.07,1.187,5.713,5.713,0,0,0,2.826-.615,2.3,2.3,0,0,0,.373-3.8,15.379,15.379,0,0,0-3.2-1.881A17.732,17.732,0,0,1,1.7,73.974,4.11,4.11,0,0,1,.208,70.828,4.665,4.665,0,0,1,2.2,66.667,8.105,8.105,0,0,1,6.891,65.48a11.111,11.111,0,0,1,4.776,1.057l-.459,2.652a11.007,11.007,0,0,0-4.4-1.144q-3.614,0-3.614,2.41A1.816,1.816,0,0,0,3.961,71.9a15.923,15.923,0,0,0,2.973,1.69,17.521,17.521,0,0,1,3.944,2.323A4.336,4.336,0,0,1,12.5,79.261a5.266,5.266,0,0,1-2.288,4.611,8.092,8.092,0,0,1-4.689,1.265A13.457,13.457,0,0,1,0,84.141Z" transform="translate(0 -65.203)" fill="#fff"/>
      <path id="Path_1290" data-name="Path 1290" d="M29.64,83.934l.329,1.551a5.072,5.072,0,0,1-2.2.451,2.473,2.473,0,0,1-1.664-.529,1.785,1.785,0,0,1-.624-1.43,4.248,4.248,0,0,1-3.987,1.959q-4.407,0-4.4-3.961a4.023,4.023,0,0,1,2.115-3.8,8.229,8.229,0,0,1,4.03-.858,18.313,18.313,0,0,1,2.245.165V76.22a1.727,1.727,0,0,0-.728-1.595,5.266,5.266,0,0,0-2.592-.451,11.624,11.624,0,0,0-4.074.737l.459-2.245a12.3,12.3,0,0,1,4.4-.737q2.951,0,4.108,1.187a5.256,5.256,0,0,1,1.161,3.84v6.327c0,.485.234.737.7.737A2.182,2.182,0,0,0,29.64,83.934Zm-4.152-3.181V79.41c-.91-.078-1.577-.121-1.993-.121a4.793,4.793,0,0,0-2.661.572A2.074,2.074,0,0,0,20,81.7c0,1.335.815,2,2.453,2a2.975,2.975,0,0,0,2.158-.841A2.787,2.787,0,0,0,25.489,80.753Z" transform="translate(-2.277 -66.062)" fill="#fff"/>
      <path id="Path_1291" data-name="Path 1291" d="M47.591,83.973l.295,1.551a4.574,4.574,0,0,1-2.2.451,2.4,2.4,0,0,1-1.664-.555,1.833,1.833,0,0,1-.624-1.447,8.209,8.209,0,0,1-2.288,1.447,6.133,6.133,0,0,1-2.366.555,4.506,4.506,0,0,1-3.2-.9,5.11,5.11,0,0,1-.953-3.51V72.22h2.782v9.057a3.06,3.06,0,0,0,.355,1.759,1.692,1.692,0,0,0,1.387.451,6.164,6.164,0,0,0,2.392-.589A4.6,4.6,0,0,0,43.4,81.572V72.22h2.739v11.1c0,.485.234.737.7.737A2.611,2.611,0,0,0,47.591,83.973Z" transform="translate(-4.61 -66.101)" fill="#fff"/>
      <path id="Path_1292" data-name="Path 1292" d="M66.524,83.124l.373,1.551a5.526,5.526,0,0,1-2.245.451A2.445,2.445,0,0,1,62.97,84.6a1.864,1.864,0,0,1-.6-1.473q-.91,2-4.568,2a4.89,4.89,0,0,1-3.9-1.673,7.807,7.807,0,0,1-1.534-5.27,7.686,7.686,0,0,1,1.664-5.27,5.6,5.6,0,0,1,4.446-1.794,12.52,12.52,0,0,1,3.9.529v-5.8H65.12V82.465c0,.485.234.737.7.737A2.12,2.12,0,0,0,66.524,83.124ZM62.372,79.25V73.9a11.739,11.739,0,0,0-3.242-.529,3.627,3.627,0,0,0-2.947,1.057,5.729,5.729,0,0,0-.875,3.588,6.468,6.468,0,0,0,.789,3.718,2.92,2.92,0,0,0,2.574,1.057,3.522,3.522,0,0,0,2.869-1.187A3.484,3.484,0,0,0,62.372,79.25Z" transform="translate(-6.979 -65.252)" fill="#fff"/>
      <path id="Path_1293" data-name="Path 1293" d="M75.158,66.867a1.734,1.734,0,0,1-.494,1.248,1.673,1.673,0,0,1-1.248.511,1.787,1.787,0,0,1-1.248-.511,1.541,1.541,0,0,1-.537-1.161,1.724,1.724,0,0,1,.537-1.265,1.705,1.705,0,0,1,1.248-.529,1.686,1.686,0,0,1,1.248.511A1.657,1.657,0,0,1,75.158,66.867Zm1,16.165.373,1.551a4.808,4.808,0,0,1-2.288.451A2.3,2.3,0,0,1,72.6,84.48a1.87,1.87,0,0,1-.6-1.447V71.279h2.782v11.1c0,.485.225.737.667.737A2.43,2.43,0,0,0,76.154,83.032Z" transform="translate(-9.545 -65.16)" fill="#fff"/>
      <path id="Path_1294" data-name="Path 1294" d="M91.94,84.141l.459-2.774a11.706,11.706,0,0,0,5.07,1.187,5.713,5.713,0,0,0,2.826-.615,2.3,2.3,0,0,0,.373-3.8,15.378,15.378,0,0,0-3.2-1.881,17.487,17.487,0,0,1-3.822-2.288,4.11,4.11,0,0,1-1.491-3.146,4.665,4.665,0,0,1,1.993-4.16,8.105,8.105,0,0,1,4.689-1.187,11.111,11.111,0,0,1,4.776,1.057l-.459,2.652a11.007,11.007,0,0,0-4.4-1.144q-3.614,0-3.614,2.41A1.816,1.816,0,0,0,95.91,71.9a15.925,15.925,0,0,0,2.973,1.69,17.522,17.522,0,0,1,3.944,2.323,4.336,4.336,0,0,1,1.621,3.346,5.266,5.266,0,0,1-2.288,4.611,8.092,8.092,0,0,1-4.689,1.265A13.472,13.472,0,0,1,91.94,84.141Z" transform="translate(-12.252 -65.203)" fill="#fff"/>
      <path id="Path_1295" data-name="Path 1295" d="M116.051,82.7l.416,2.037a9.3,9.3,0,0,1-3.077.529,2.728,2.728,0,0,1-2.2-.8,4.194,4.194,0,0,1-.667-2.67V73.68h-2.2l.459-2.167h1.742V67.881l2.739-.9v4.533h2.869V73.68H113.26v7.792a2.005,2.005,0,0,0,.269,1.248,1.534,1.534,0,0,0,1.144.3A2.9,2.9,0,0,0,116.051,82.7Z" transform="translate(-14.435 -65.403)" fill="#fff"/>
      <path id="Path_1296" data-name="Path 1296" d="M132.6,83.934l.329,1.551a5.072,5.072,0,0,1-2.2.451,2.474,2.474,0,0,1-1.664-.529,1.785,1.785,0,0,1-.624-1.43,4.248,4.248,0,0,1-3.987,1.959q-4.407,0-4.4-3.961a4.023,4.023,0,0,1,2.115-3.8,8.229,8.229,0,0,1,4.03-.858,18.313,18.313,0,0,1,2.245.165V76.22a1.727,1.727,0,0,0-.728-1.595,5.266,5.266,0,0,0-2.592-.451,11.624,11.624,0,0,0-4.074.737l.459-2.245a12.3,12.3,0,0,1,4.4-.737q2.951,0,4.108,1.187a5.256,5.256,0,0,1,1.161,3.84v6.327c0,.485.234.737.7.737A2.182,2.182,0,0,0,132.6,83.934Zm-4.152-3.181V79.41c-.91-.078-1.577-.121-1.994-.121a4.793,4.793,0,0,0-2.661.572,2.074,2.074,0,0,0-.832,1.837c0,1.335.815,2,2.453,2a2.974,2.974,0,0,0,2.158-.841A2.818,2.818,0,0,0,128.449,80.753Z" transform="translate(-15.998 -66.062)" fill="#fff"/>
      <path id="Path_1297" data-name="Path 1297" d="M150.748,83.936l.329,1.551a4.69,4.69,0,0,1-2.245.451,2.473,2.473,0,0,1-1.664-.529,1.826,1.826,0,0,1-.624-1.473v-7.35a2.816,2.816,0,0,0-.373-1.716,1.7,1.7,0,0,0-1.369-.451,5.991,5.991,0,0,0-2.288.572,7.534,7.534,0,0,0-2.2,1.387v9.343H137.53V72.183h2.782v1.794a8.1,8.1,0,0,1,2.366-1.447,6.582,6.582,0,0,1,2.531-.589,4.341,4.341,0,0,1,3.155.9,5.125,5.125,0,0,1,.953,3.51v6.943c0,.485.225.737.667.737A2.881,2.881,0,0,0,150.748,83.936Z" transform="translate(-18.327 -66.064)" fill="#fff"/>
      <path id="Path_1298" data-name="Path 1298" d="M169.774,83.124l.373,1.551a5.526,5.526,0,0,1-2.245.451,2.445,2.445,0,0,1-1.681-.529,1.864,1.864,0,0,1-.6-1.473q-.91,2-4.568,2a4.878,4.878,0,0,1-3.9-1.673,7.806,7.806,0,0,1-1.534-5.27,7.686,7.686,0,0,1,1.664-5.27,5.6,5.6,0,0,1,4.446-1.794,12.52,12.52,0,0,1,3.9.529v-5.8h2.739V82.465c0,.485.234.737.7.737A2.148,2.148,0,0,0,169.774,83.124Zm-4.152-3.874V73.9a11.739,11.739,0,0,0-3.242-.529,3.628,3.628,0,0,0-2.947,1.057,5.729,5.729,0,0,0-.875,3.588,6.468,6.468,0,0,0,.789,3.718,2.92,2.92,0,0,0,2.574,1.057,3.522,3.522,0,0,0,2.869-1.187A3.483,3.483,0,0,0,165.622,79.25Z" transform="translate(-20.738 -65.252)" fill="#fff"/>
      <path id="Path_1299" data-name="Path 1299" d="M186.98,83.934l.329,1.551a5.072,5.072,0,0,1-2.2.451,2.473,2.473,0,0,1-1.664-.529,1.785,1.785,0,0,1-.624-1.43,4.248,4.248,0,0,1-3.987,1.959q-4.407,0-4.4-3.961a4.023,4.023,0,0,1,2.115-3.8,8.229,8.229,0,0,1,4.03-.858,18.312,18.312,0,0,1,2.245.165V76.22a1.727,1.727,0,0,0-.728-1.595,5.265,5.265,0,0,0-2.592-.451,11.623,11.623,0,0,0-4.074.737l.459-2.245a12.3,12.3,0,0,1,4.4-.737q2.951,0,4.108,1.187a5.256,5.256,0,0,1,1.161,3.84v6.327c0,.485.234.737.7.737A2.182,2.182,0,0,0,186.98,83.934Zm-4.152-3.181V79.41c-.91-.078-1.578-.121-1.993-.121a4.793,4.793,0,0,0-2.661.572,2.074,2.074,0,0,0-.832,1.837c0,1.335.815,2,2.453,2a2.975,2.975,0,0,0,2.158-.841A2.819,2.819,0,0,0,182.829,80.753Z" transform="translate(-23.245 -66.062)" fill="#fff"/>
      <path id="Path_1300" data-name="Path 1300" d="M194.712,85.739H191.93V72.183h2.782v1.759a3.42,3.42,0,0,1,1.1-1.447,2.461,2.461,0,0,1,1.473-.555,5.26,5.26,0,0,1,2.574.737l-.5,2.245a7.515,7.515,0,0,0-2.288-.407q-1.365,0-2.366,1.794v9.43Z" transform="translate(-25.577 -66.064)" fill="#fff"/>
      <path id="Path_1301" data-name="Path 1301" d="M217.1,83.124l.373,1.551a5.526,5.526,0,0,1-2.245.451,2.445,2.445,0,0,1-1.681-.529,1.864,1.864,0,0,1-.6-1.473q-.91,2-4.568,2a4.878,4.878,0,0,1-3.9-1.673,7.807,7.807,0,0,1-1.534-5.27,7.686,7.686,0,0,1,1.664-5.27,5.6,5.6,0,0,1,4.446-1.794,12.52,12.52,0,0,1,3.9.529v-5.8H215.7V82.465c0,.485.234.737.7.737A2.12,2.12,0,0,0,217.1,83.124Zm-4.152-3.874V73.9a11.738,11.738,0,0,0-3.242-.529,3.627,3.627,0,0,0-2.947,1.057,5.729,5.729,0,0,0-.875,3.588,6.468,6.468,0,0,0,.789,3.718,2.92,2.92,0,0,0,2.574,1.057,3.522,3.522,0,0,0,2.869-1.187A3.484,3.484,0,0,0,212.952,79.25Z" transform="translate(-27.045 -65.252)" fill="#fff"/>
      <path id="Path_1302" data-name="Path 1302" d="M221.97,85.322l.624-2.366a9.246,9.246,0,0,0,1.8.572,8.563,8.563,0,0,0,1.8.243c2.21,0,3.32-.65,3.32-1.959a1.3,1.3,0,0,0-.581-1.083,10.175,10.175,0,0,0-2.288-1.04,11.33,11.33,0,0,1-3.034-1.508,3.028,3.028,0,0,1-1.248-2.488,3.168,3.168,0,0,1,1.413-2.774,7.043,7.043,0,0,1,4.03-.979,9.9,9.9,0,0,1,3.9.693l-.459,2.2a8.141,8.141,0,0,0-3.363-.737q-2.782,0-2.782,1.43a1.087,1.087,0,0,0,.52.9,10.5,10.5,0,0,0,2.054.936,12.324,12.324,0,0,1,3.242,1.595,3.677,3.677,0,0,1-.5,6.006,6.832,6.832,0,0,1-3.736.979A15.894,15.894,0,0,1,221.97,85.322Z" transform="translate(-29.58 -66.064)" fill="#fff"/>
    </g>
    <g id="المواصفات_السعودية" data-name="المواصفات السعودية" transform="translate(0.217 24.468)">
      <path id="Path_1304" data-name="Path 1304" d="M8.238,31.5A1.548,1.548,0,0,0,9.391,31a1.62,1.62,0,0,0,.485-1.161,1.534,1.534,0,0,0-.485-1.135,1.632,1.632,0,0,0-2.306,0A1.548,1.548,0,0,0,6.6,29.842,1.635,1.635,0,0,0,7.085,31,1.548,1.548,0,0,0,8.238,31.5Z" transform="translate(-1.096 -28.23)" fill="#fff"/>
      <path id="Path_1305" data-name="Path 1305" d="M3.481,31.5A1.548,1.548,0,0,0,4.634,31a1.62,1.62,0,0,0,.485-1.161,1.534,1.534,0,0,0-.485-1.135,1.578,1.578,0,0,0-1.153-.477,1.651,1.651,0,0,0-1.179.477,1.5,1.5,0,0,0-.5,1.135A1.584,1.584,0,0,0,2.3,31,1.633,1.633,0,0,0,3.481,31.5Z" transform="translate(-0.457 -28.23)" fill="#fff"/>
      <path id="Path_1306" data-name="Path 1306" d="M16.319,48.58a4.256,4.256,0,0,0,1.638-3.675V35.77H15.271v9.257q0,1.82-1.976,1.82H10.33V35.77H4.991a5,5,0,0,0-3.19.988A4.485,4.485,0,0,0,.25,40.433V44.81a4.668,4.668,0,0,0,1.092,3.268,5.134,5.134,0,0,0,3.952,1.4H6.3l1.3-1.734v1.734h5.486A5.323,5.323,0,0,0,16.319,48.58ZM7.6,46.847H5.078A2.353,2.353,0,0,1,3.457,46.4a2.037,2.037,0,0,1-.485-1.525V40.364A1.712,1.712,0,0,1,4.9,38.422H7.591v8.425Z" transform="translate(-0.25 -29.235)" fill="#fff"/>
      <path id="Path_1307" data-name="Path 1307" d="M13.048,56.22A1.564,1.564,0,0,0,11.9,56.7a1.548,1.548,0,0,0-.485,1.135,1.6,1.6,0,0,0,.459,1.161,1.615,1.615,0,0,0,1.179.451,1.564,1.564,0,0,0,1.153-.477,1.571,1.571,0,0,0,0-2.271A1.584,1.584,0,0,0,13.048,56.22Z" transform="translate(-1.737 -31.96)" fill="#fff"/>
      <path id="Path_1308" data-name="Path 1308" d="M17.891,56.22a1.62,1.62,0,0,0-1.2.477,1.6,1.6,0,0,0,0,2.3,1.67,1.67,0,0,0,1.2.451,1.512,1.512,0,0,0,1.135-.477,1.557,1.557,0,0,0,.459-1.135,1.644,1.644,0,0,0-1.595-1.612Z" transform="translate(-2.377 -31.96)" fill="#fff"/>
      <path id="Path_1309" data-name="Path 1309" d="M27.364,35.77H25.388v2.644h1.8q3.952,0,3.952,3.97v2.6c0,1.239-.659,1.863-1.976,1.863H23.03V49.49h5.92a4.845,4.845,0,0,0,3.692-1.326,4.281,4.281,0,0,0,1.135-3.06V42.089a6.046,6.046,0,0,0-1.768-4.507A6.317,6.317,0,0,0,27.364,35.77Z" transform="translate(-3.286 -29.235)" fill="#fff"/>
      <path id="Path_1310" data-name="Path 1310" d="M91.786,43.961a2.1,2.1,0,0,1-.485,1.569,2.4,2.4,0,0,1-1.655.451H87.634V34.912H84.947V45.989H80.284V34.912H77.6V45.989H72.891V34.912H70.247V45.989H61.779a37.664,37.664,0,0,1,4.455-4.134v-.329a6.582,6.582,0,0,0-1.768-4.793,6.666,6.666,0,0,0-5-1.985,6.932,6.932,0,0,0-4.5,1.491,6.346,6.346,0,0,0-2.228,5.209v.416A37.811,37.811,0,0,1,57.151,46H48.96V34.912H43.63a4.878,4.878,0,0,0-3.363,1.118,4.5,4.5,0,0,0-1.387,3.554v4.377A4.522,4.522,0,0,0,40.1,47.35a5.212,5.212,0,0,0,3.822,1.283h2.314v.823c0,2.67-1.872,4.013-5.625,4.013h-.425l1.8,2.4a8.569,8.569,0,0,0,5.122-1.69c1.231-1.1,1.846-2.843,1.846-5.209v-.338h8.191a4.167,4.167,0,0,0,2.349-.789,4.331,4.331,0,0,0,2.314.789H89.723a4.894,4.894,0,0,0,3.441-1.118,4.248,4.248,0,0,0,1.3-3.346V29.33H91.777V43.961ZM46.221,45.989h-2.1a3.407,3.407,0,0,1-2.02-.416,2.024,2.024,0,0,1-.5-1.612V39.584a2.242,2.242,0,0,1,.442-1.551,1.948,1.948,0,0,1,1.491-.477h2.687Zm13.27-1.413a33.225,33.225,0,0,0-4.074-4.048,3.238,3.238,0,0,1,1.257-2.193,4.463,4.463,0,0,1,2.817-.953,4.336,4.336,0,0,1,2.392.7,3.363,3.363,0,0,1,1.595,2.436A30.037,30.037,0,0,0,59.491,44.576Z" transform="translate(-5.398 -28.377)" fill="#fff"/>
      <path id="Path_1311" data-name="Path 1311" d="M106.45,50.114l2.73-1.482V29.33h-2.73Z" transform="translate(-14.402 -28.377)" fill="#fff"/>
      <path id="Path_1312" data-name="Path 1312" d="M127.415,31.5a1.633,1.633,0,0,0,1.179-.494,1.52,1.52,0,0,0,.5-1.118,1.489,1.489,0,0,0-.5-1.135,1.651,1.651,0,0,0-1.179-.477,1.524,1.524,0,0,0-1.109.477,1.571,1.571,0,0,0,0,2.271A1.51,1.51,0,0,0,127.415,31.5Z" transform="translate(-16.984 -28.237)" fill="#fff"/>
      <path id="Path_1313" data-name="Path 1313" d="M131.233,45.027c0,1.213-.641,1.82-1.933,1.82H119.2a1.969,1.969,0,0,1-1.473-.477,2.157,2.157,0,0,1-.459-1.551V38.951l-2.73,1.733V44.7a4.924,4.924,0,0,0,1.135,3.432,4.841,4.841,0,0,0,3.736,1.361h9.681a4.977,4.977,0,0,0,3.528-1.161,4.431,4.431,0,0,0,1.3-3.432V35.77h-2.687Z" transform="translate(-15.48 -29.235)" fill="#fff"/>
      <path id="Path_1314" data-name="Path 1314" d="M122.651,31.5A1.548,1.548,0,0,0,123.8,31a1.62,1.62,0,0,0,.485-1.161,1.534,1.534,0,0,0-.485-1.135,1.578,1.578,0,0,0-1.153-.477,1.651,1.651,0,0,0-1.179.477,1.5,1.5,0,0,0-.5,1.135,1.584,1.584,0,0,0,.5,1.161A1.633,1.633,0,0,0,122.651,31.5Z" transform="translate(-16.337 -28.23)" fill="#fff"/>
      <path id="Path_1315" data-name="Path 1315" d="M153.352,31.5A1.548,1.548,0,0,0,154.5,31a1.62,1.62,0,0,0,.485-1.161,1.534,1.534,0,0,0-.485-1.135,1.578,1.578,0,0,0-1.153-.477,1.651,1.651,0,0,0-1.179.477,1.5,1.5,0,0,0-.5,1.135,1.584,1.584,0,0,0,.5,1.161A1.633,1.633,0,0,0,153.352,31.5Z" transform="translate(-20.428 -28.23)" fill="#fff"/>
      <path id="Path_1316" data-name="Path 1316" d="M185.49,50.114l2.73-1.482V29.33h-2.73Z" transform="translate(-24.935 -28.377)" fill="#fff"/>
      <path id="Path_1317" data-name="Path 1317" d="M219.686,43.961a2.1,2.1,0,0,1-.485,1.569,2.4,2.4,0,0,1-1.655.451h-.78V39.41a4.465,4.465,0,0,0-1.343-3.432,5.193,5.193,0,0,0-3.658-1.239,5.674,5.674,0,0,0-3.233.867,4.2,4.2,0,0,0-1.768,3.8v6.57H202.1V34.912h-5.33a4.878,4.878,0,0,0-3.363,1.118,4.5,4.5,0,0,0-1.387,3.554v4.377a4.522,4.522,0,0,0,1.222,3.389,5.212,5.212,0,0,0,3.822,1.283h2.314v.823c0,2.67-1.881,4.013-5.625,4.013h-.416l1.8,2.4a8.569,8.569,0,0,0,5.122-1.69c1.231-1.1,1.846-2.843,1.846-5.209v-.338h4.706a3.879,3.879,0,0,0,1.552,2.4,5.438,5.438,0,0,0,3.406,1.031,5.594,5.594,0,0,0,3.32-.893,3.746,3.746,0,0,0,1.551-2.54h.979a4.894,4.894,0,0,0,3.441-1.118,4.248,4.248,0,0,0,1.3-3.346V29.33h-2.687V43.961ZM199.37,45.989h-2.1a3.407,3.407,0,0,1-2.02-.416,2.024,2.024,0,0,1-.5-1.612V39.584a2.242,2.242,0,0,1,.442-1.551,1.948,1.948,0,0,1,1.491-.477h2.687Zm14.743,1.439c0,1.352-.78,2.028-2.349,2.028s-2.349-.676-2.349-2.028V39.367c0-1.352.78-2.028,2.349-2.028s2.349.676,2.349,2.028Z" transform="translate(-25.806 -28.377)" fill="#fff"/>
      <path id="Path_1318" data-name="Path 1318" d="M230.47,29.33V50.114l2.73-1.482V29.33Z" transform="translate(-30.929 -28.377)" fill="#fff"/>
      <path id="Path_1319" data-name="Path 1319" d="M175.32,36.151a4.186,4.186,0,0,0-3.155-1.361,5.838,5.838,0,0,0-1.638.251l-6.388,2.228V34.912H161.5V45.989h-4.663V34.912h-5.417a4.79,4.79,0,0,0-3.233,1.075,4.5,4.5,0,0,0-1.43,3.6v6.405h-2.219c-.979,0-1.473-.563-1.473-1.7V29.33h-2.73V44.411a4.123,4.123,0,0,0,4.2,4.221h10.9l1.3-1.733v1.733h4.706V51.2l2.687-1.4V48.632h7.645a4.674,4.674,0,0,0,3.614-1.361,4.3,4.3,0,0,0,1.092-3.016V38.968A3.849,3.849,0,0,0,175.32,36.151ZM154.1,45.989h-4.62V39.584c0-1.352.641-2.028,1.933-2.028H154.1ZM173.8,44.2c0,1.187-.641,1.777-1.933,1.777h-7.731V41.438a1.861,1.861,0,0,1,.277-1.2,3.306,3.306,0,0,1,1.283-.7l5.166-1.82a3.926,3.926,0,0,1,1.387-.286,1.41,1.41,0,0,1,1.135.494,1.992,1.992,0,0,1,.416,1.326Z" transform="translate(-18.917 -28.376)" fill="#fff"/>
    </g>
    <g id="SASO" transform="translate(-100.868 1)">
      <path id="Path_1303" data-name="Path 1303" d="M278.244,15.2a105.254,105.254,0,0,0-9.734,12.966c-.988,1.534-1.915,3.094-2.808,4.663-.91,1.551-1.8,3.138-2.644,4.75a106.246,106.246,0,0,0-6.371,14.925,110.916,110.916,0,0,0-5.018,21.7l28.7-16.537a88.59,88.59,0,0,1,5.92-12.932h.017v-.017a88.679,88.679,0,0,1,8.234-11.562V.01A110.987,110.987,0,0,0,278.244,15.2" transform="translate(-251.67 -0.001)" fill="#fff"/>
      <path id="XMLID_25_" d="M304.67,33.17a87.639,87.639,0,0,1,8.251,11.562l.009.017h.009a89.506,89.506,0,0,1,5.92,12.932l28.7,16.537a110.31,110.31,0,0,0-5.018-21.7,104.245,104.245,0,0,0-6.371-14.925q-1.274-2.431-2.644-4.75c-.893-1.569-1.82-3.129-2.808-4.663a106.133,106.133,0,0,0-9.733-12.966A110.31,110.31,0,0,0,304.67,0Z" transform="translate(-258.733)" fill="#fff"/>
      <path id="XMLID_24_" d="M282.239,69.515a89.455,89.455,0,0,0,14.154,1.335h.026a87.664,87.664,0,0,0,14.145-1.369l28.715,16.529a111.356,111.356,0,0,1-21.3,6.561,105.638,105.638,0,0,1-16.1,1.976c-1.82.087-3.632.113-5.443.1-1.794.017-3.623,0-5.443-.078a107.616,107.616,0,0,1-16.1-1.9,111.509,111.509,0,0,1-21.348-6.492Z" transform="translate(-251.92 -9.259)" fill="#fff"/>
      <path id="XMLID_22_" d="M281.321,89.01a5.779,5.779,0,0,1-3.7-1.985l1.361-1.5a5.115,5.115,0,0,0,2.54,1.4c1.135.182,1.959-.251,2.1-1.1a1.187,1.187,0,0,0-.191-.875c-.6-.849-2.635-1.473-3.649-2.895a3.035,3.035,0,0,1-.555-2.349c.347-2.089,2.262-3.172,4.6-2.774a5.4,5.4,0,0,1,3.45,1.881l-1.387,1.4a4.524,4.524,0,0,0-2.236-1.274c-1.023-.173-1.837.2-1.959.936a.87.87,0,0,0,.182.745c.459.641,2.765,1.569,3.77,2.973a2.987,2.987,0,0,1,.52,2.436C285.793,88.2,283.869,89.435,281.321,89.01Z" transform="translate(-255.128 -10.241)" fill="#066058"/>
      <path id="XMLID_19_" d="M297.5,90.452l-.719-2.5-4.23-.269-1.014,2.392-2.514-.147L294,78.43l2.5.156,3.562,12.022Zm-2.418-9.283L293.293,85.8l2.964.182Z" transform="translate(-256.647 -10.452)" fill="#066058"/>
      <path id="XMLID_17_" d="M307.572,90.642a5.781,5.781,0,0,1-4.022-1.213l1.031-1.733a5.164,5.164,0,0,0,2.782.858c1.144-.043,1.864-.65,1.829-1.508a1.236,1.236,0,0,0-.364-.815c-.763-.711-2.878-.919-4.16-2.1a3.039,3.039,0,0,1-1.014-2.193c-.087-2.106,1.577-3.554,3.944-3.64a5.449,5.449,0,0,1,3.753,1.135l-1.066,1.655a4.6,4.6,0,0,0-2.462-.8c-1.04.035-1.768.563-1.725,1.3a.883.883,0,0,0,.312.7c.589.537,3.025.979,4.282,2.15a2.952,2.952,0,0,1,1.014,2.28C311.793,88.943,310.163,90.538,307.572,90.642Z" transform="translate(-258.584 -10.433)" fill="#066058"/>
      <path id="XMLID_14_" d="M321.6,89.382c-3.38.511-6.085-1.655-6.631-5.339-.537-3.588,1.4-6.353,4.776-6.865,3.45-.52,6.059,1.656,6.579,5.148C326.884,86.1,324.908,88.879,321.6,89.382ZM319.95,79.206c-1.863.286-2.826,2.193-2.461,4.611.364,2.444,1.993,3.77,3.831,3.484,2.41-.364,2.782-2.748,2.5-4.62C323.478,80.385,321.909,78.92,319.95,79.206Z" transform="translate(-260.093 -10.275)" fill="#066058"/>
    </g>
  </g>
</svg>
