<svg xmlns="http://www.w3.org/2000/svg" xmlns:xlink="http://www.w3.org/1999/xlink" width="1920" height="875" viewBox="0 0 1920 875">
  <defs>
    <clipPath id="clip-path">
      <rect width="1920" height="875" fill="none"/>
    </clipPath>
  </defs>
  <g id="PatternBody" opacity="0.8" clip-path="url(#clip-path)">
    <g transform="translate(0 -962.345)">
      <g id="Group_23172" data-name="Group 23172">
        <g id="Group_23167" data-name="Group 23167" transform="matrix(0.602, 0.799, -0.799, 0.602, 333.323, 949.27)" style="isolation: isolate">
          <path id="Path_1332" data-name="Path 1332" d="M1113.167-756.224a194.313,194.313,0,0,1-44.731,24.385l-5.669,2.174-1.74-5.784c-16.065-53.158-10.259-103.238-10-105.339l.67-5.556,5.581.654c1.573.182,38.9,4.945,97.313,42.815l5.608,3.637-4.553,4.875C1141.361-779.06,1127.378-766.456,1113.167-756.224Z" transform="translate(-1033.456 784.782)" fill="none" stroke="#eef0f2" stroke-width="1"/>
        </g>
        <g id="Group_23168" data-name="Group 23168" transform="matrix(0.139, -0.99, 0.99, 0.139, 120.6, 1120.38)" style="isolation: isolate">
          <path id="Path_1333" data-name="Path 1333" d="M1116.776-731.724a203.139,203.139,0,0,1-42.15-32.517l-4.453-4.5,4.833-4.084c44.444-37.543,95.074-52.912,97.2-53.549l5.636-1.673,1.695,5.6c.469,1.564,11.479,39.19-.558,110.762l-1.158,6.87-6.609-2.31C1150.521-714.35,1132.561-722.444,1116.776-731.724Z" transform="translate(-1070.174 828.044)" fill="none" stroke="#eef0f2" stroke-width="1"/>
        </g>
        <g id="Group_23170" data-name="Group 23170" transform="translate(-30.13 975.755) rotate(-25)" style="isolation: isolate">
          <path id="Path_1337" data-name="Path 1337" d="M962.865-776.491a181.326,181.326,0,0,1-42.1,22.063l-5.317,1.93-1.544-5.442c-14.2-50.013-8.029-96.778-7.759-98.745l.713-5.188,5.2.711c1.452.2,36.217,5.29,90.151,41.709l5.178,3.5-4.323,4.493C989.512-797.381,976.268-785.832,962.865-776.491Z" transform="translate(-913.459 852.427)" fill="none" stroke="#eef0f2" stroke-width="1"/>
        </g>
      </g>
    </g>
    <g transform="translate(547 -962.345)">
      <g id="Group_23172-2" data-name="Group 23172">
        <g id="Group_23167-2" data-name="Group 23167" transform="matrix(0.602, 0.799, -0.799, 0.602, 333.323, 949.27)" style="isolation: isolate">
          <path id="Path_1332-2" data-name="Path 1332" d="M1113.167-756.224a194.313,194.313,0,0,1-44.731,24.385l-5.669,2.174-1.74-5.784c-16.065-53.158-10.259-103.238-10-105.339l.67-5.556,5.581.654c1.573.182,38.9,4.945,97.313,42.815l5.608,3.637-4.553,4.875C1141.361-779.06,1127.378-766.456,1113.167-756.224Z" transform="translate(-1033.456 784.782)" fill="none" stroke="#eef0f2" stroke-width="1"/>
        </g>
        <g id="Group_23168-2" data-name="Group 23168" transform="matrix(0.139, -0.99, 0.99, 0.139, 120.6, 1120.38)" style="isolation: isolate">
          <path id="Path_1333-2" data-name="Path 1333" d="M1116.776-731.724a203.139,203.139,0,0,1-42.15-32.517l-4.453-4.5,4.833-4.084c44.444-37.543,95.074-52.912,97.2-53.549l5.636-1.673,1.695,5.6c.469,1.564,11.479,39.19-.558,110.762l-1.158,6.87-6.609-2.31C1150.521-714.35,1132.561-722.444,1116.776-731.724Z" transform="translate(-1070.174 828.044)" fill="none" stroke="#eef0f2" stroke-width="1"/>
        </g>
        <g id="Group_23170-2" data-name="Group 23170" transform="translate(-30.13 975.755) rotate(-25)" style="isolation: isolate">
          <path id="Path_1337-2" data-name="Path 1337" d="M962.865-776.491a181.326,181.326,0,0,1-42.1,22.063l-5.317,1.93-1.544-5.442c-14.2-50.013-8.029-96.778-7.759-98.745l.713-5.188,5.2.711c1.452.2,36.217,5.29,90.151,41.709l5.178,3.5-4.323,4.493C989.512-797.381,976.268-785.832,962.865-776.491Z" transform="translate(-913.459 852.427)" fill="none" stroke="#eef0f2" stroke-width="1"/>
        </g>
      </g>
    </g>
    <g transform="translate(1094 -962.345)">
      <g id="Group_23172-3" data-name="Group 23172">
        <g id="Group_23167-3" data-name="Group 23167" transform="matrix(0.602, 0.799, -0.799, 0.602, 333.323, 949.27)" style="isolation: isolate">
          <path id="Path_1332-3" data-name="Path 1332" d="M1113.167-756.224a194.313,194.313,0,0,1-44.731,24.385l-5.669,2.174-1.74-5.784c-16.065-53.158-10.259-103.238-10-105.339l.67-5.556,5.581.654c1.573.182,38.9,4.945,97.313,42.815l5.608,3.637-4.553,4.875C1141.361-779.06,1127.378-766.456,1113.167-756.224Z" transform="translate(-1033.456 784.782)" fill="none" stroke="#eef0f2" stroke-width="1"/>
        </g>
        <g id="Group_23168-3" data-name="Group 23168" transform="matrix(0.139, -0.99, 0.99, 0.139, 120.6, 1120.38)" style="isolation: isolate">
          <path id="Path_1333-3" data-name="Path 1333" d="M1116.776-731.724a203.139,203.139,0,0,1-42.15-32.517l-4.453-4.5,4.833-4.084c44.444-37.543,95.074-52.912,97.2-53.549l5.636-1.673,1.695,5.6c.469,1.564,11.479,39.19-.558,110.762l-1.158,6.87-6.609-2.31C1150.521-714.35,1132.561-722.444,1116.776-731.724Z" transform="translate(-1070.174 828.044)" fill="none" stroke="#eef0f2" stroke-width="1"/>
        </g>
        <g id="Group_23170-3" data-name="Group 23170" transform="translate(-30.13 975.755) rotate(-25)" style="isolation: isolate">
          <path id="Path_1337-3" data-name="Path 1337" d="M962.865-776.491a181.326,181.326,0,0,1-42.1,22.063l-5.317,1.93-1.544-5.442c-14.2-50.013-8.029-96.778-7.759-98.745l.713-5.188,5.2.711c1.452.2,36.217,5.29,90.151,41.709l5.178,3.5-4.323,4.493C989.512-797.381,976.268-785.832,962.865-776.491Z" transform="translate(-913.459 852.427)" fill="none" stroke="#eef0f2" stroke-width="1"/>
        </g>
      </g>
    </g>
    <g transform="translate(1641 -962.345)">
      <g id="Group_23172-4" data-name="Group 23172">
        <g id="Group_23167-4" data-name="Group 23167" transform="matrix(0.602, 0.799, -0.799, 0.602, 333.323, 949.27)" style="isolation: isolate">
          <path id="Path_1332-4" data-name="Path 1332" d="M1113.167-756.224a194.313,194.313,0,0,1-44.731,24.385l-5.669,2.174-1.74-5.784c-16.065-53.158-10.259-103.238-10-105.339l.67-5.556,5.581.654c1.573.182,38.9,4.945,97.313,42.815l5.608,3.637-4.553,4.875C1141.361-779.06,1127.378-766.456,1113.167-756.224Z" transform="translate(-1033.456 784.782)" fill="none" stroke="#eef0f2" stroke-width="1"/>
        </g>
        <g id="Group_23168-4" data-name="Group 23168" transform="matrix(0.139, -0.99, 0.99, 0.139, 120.6, 1120.38)" style="isolation: isolate">
          <path id="Path_1333-4" data-name="Path 1333" d="M1116.776-731.724a203.139,203.139,0,0,1-42.15-32.517l-4.453-4.5,4.833-4.084c44.444-37.543,95.074-52.912,97.2-53.549l5.636-1.673,1.695,5.6c.469,1.564,11.479,39.19-.558,110.762l-1.158,6.87-6.609-2.31C1150.521-714.35,1132.561-722.444,1116.776-731.724Z" transform="translate(-1070.174 828.044)" fill="none" stroke="#eef0f2" stroke-width="1"/>
        </g>
        <g id="Group_23170-4" data-name="Group 23170" transform="translate(-30.13 975.755) rotate(-25)" style="isolation: isolate">
          <path id="Path_1337-4" data-name="Path 1337" d="M962.865-776.491a181.326,181.326,0,0,1-42.1,22.063l-5.317,1.93-1.544-5.442c-14.2-50.013-8.029-96.778-7.759-98.745l.713-5.188,5.2.711c1.452.2,36.217,5.29,90.151,41.709l5.178,3.5-4.323,4.493C989.512-797.381,976.268-785.832,962.865-776.491Z" transform="translate(-913.459 852.427)" fill="none" stroke="#eef0f2" stroke-width="1"/>
        </g>
      </g>
    </g>
    <g transform="translate(0 -776.345)">
      <g id="Group_23172-5" data-name="Group 23172">
        <g id="Group_23167-5" data-name="Group 23167" transform="matrix(0.602, 0.799, -0.799, 0.602, 333.323, 949.27)" style="isolation: isolate">
          <path id="Path_1332-5" data-name="Path 1332" d="M1113.167-756.224a194.313,194.313,0,0,1-44.731,24.385l-5.669,2.174-1.74-5.784c-16.065-53.158-10.259-103.238-10-105.339l.67-5.556,5.581.654c1.573.182,38.9,4.945,97.313,42.815l5.608,3.637-4.553,4.875C1141.361-779.06,1127.378-766.456,1113.167-756.224Z" transform="translate(-1033.456 784.782)" fill="none" stroke="#eef0f2" stroke-width="1"/>
        </g>
        <g id="Group_23168-5" data-name="Group 23168" transform="matrix(0.139, -0.99, 0.99, 0.139, 120.6, 1120.38)" style="isolation: isolate">
          <path id="Path_1333-5" data-name="Path 1333" d="M1116.776-731.724a203.139,203.139,0,0,1-42.15-32.517l-4.453-4.5,4.833-4.084c44.444-37.543,95.074-52.912,97.2-53.549l5.636-1.673,1.695,5.6c.469,1.564,11.479,39.19-.558,110.762l-1.158,6.87-6.609-2.31C1150.521-714.35,1132.561-722.444,1116.776-731.724Z" transform="translate(-1070.174 828.044)" fill="none" stroke="#eef0f2" stroke-width="1"/>
        </g>
        <g id="Group_23170-5" data-name="Group 23170" transform="translate(-30.13 975.755) rotate(-25)" style="isolation: isolate">
          <path id="Path_1337-5" data-name="Path 1337" d="M962.865-776.491a181.326,181.326,0,0,1-42.1,22.063l-5.317,1.93-1.544-5.442c-14.2-50.013-8.029-96.778-7.759-98.745l.713-5.188,5.2.711c1.452.2,36.217,5.29,90.151,41.709l5.178,3.5-4.323,4.493C989.512-797.381,976.268-785.832,962.865-776.491Z" transform="translate(-913.459 852.427)" fill="none" stroke="#eef0f2" stroke-width="1"/>
        </g>
      </g>
    </g>
    <g transform="translate(547 -776.345)">
      <g id="Group_23172-6" data-name="Group 23172">
        <g id="Group_23167-6" data-name="Group 23167" transform="matrix(0.602, 0.799, -0.799, 0.602, 333.323, 949.27)" style="isolation: isolate">
          <path id="Path_1332-6" data-name="Path 1332" d="M1113.167-756.224a194.313,194.313,0,0,1-44.731,24.385l-5.669,2.174-1.74-5.784c-16.065-53.158-10.259-103.238-10-105.339l.67-5.556,5.581.654c1.573.182,38.9,4.945,97.313,42.815l5.608,3.637-4.553,4.875C1141.361-779.06,1127.378-766.456,1113.167-756.224Z" transform="translate(-1033.456 784.782)" fill="none" stroke="#eef0f2" stroke-width="1"/>
        </g>
        <g id="Group_23168-6" data-name="Group 23168" transform="matrix(0.139, -0.99, 0.99, 0.139, 120.6, 1120.38)" style="isolation: isolate">
          <path id="Path_1333-6" data-name="Path 1333" d="M1116.776-731.724a203.139,203.139,0,0,1-42.15-32.517l-4.453-4.5,4.833-4.084c44.444-37.543,95.074-52.912,97.2-53.549l5.636-1.673,1.695,5.6c.469,1.564,11.479,39.19-.558,110.762l-1.158,6.87-6.609-2.31C1150.521-714.35,1132.561-722.444,1116.776-731.724Z" transform="translate(-1070.174 828.044)" fill="none" stroke="#eef0f2" stroke-width="1"/>
        </g>
        <g id="Group_23170-6" data-name="Group 23170" transform="translate(-30.13 975.755) rotate(-25)" style="isolation: isolate">
          <path id="Path_1337-6" data-name="Path 1337" d="M962.865-776.491a181.326,181.326,0,0,1-42.1,22.063l-5.317,1.93-1.544-5.442c-14.2-50.013-8.029-96.778-7.759-98.745l.713-5.188,5.2.711c1.452.2,36.217,5.29,90.151,41.709l5.178,3.5-4.323,4.493C989.512-797.381,976.268-785.832,962.865-776.491Z" transform="translate(-913.459 852.427)" fill="none" stroke="#eef0f2" stroke-width="1"/>
        </g>
      </g>
    </g>
    <g transform="translate(1094 -776.345)">
      <g id="Group_23172-7" data-name="Group 23172">
        <g id="Group_23167-7" data-name="Group 23167" transform="matrix(0.602, 0.799, -0.799, 0.602, 333.323, 949.27)" style="isolation: isolate">
          <path id="Path_1332-7" data-name="Path 1332" d="M1113.167-756.224a194.313,194.313,0,0,1-44.731,24.385l-5.669,2.174-1.74-5.784c-16.065-53.158-10.259-103.238-10-105.339l.67-5.556,5.581.654c1.573.182,38.9,4.945,97.313,42.815l5.608,3.637-4.553,4.875C1141.361-779.06,1127.378-766.456,1113.167-756.224Z" transform="translate(-1033.456 784.782)" fill="none" stroke="#eef0f2" stroke-width="1"/>
        </g>
        <g id="Group_23168-7" data-name="Group 23168" transform="matrix(0.139, -0.99, 0.99, 0.139, 120.6, 1120.38)" style="isolation: isolate">
          <path id="Path_1333-7" data-name="Path 1333" d="M1116.776-731.724a203.139,203.139,0,0,1-42.15-32.517l-4.453-4.5,4.833-4.084c44.444-37.543,95.074-52.912,97.2-53.549l5.636-1.673,1.695,5.6c.469,1.564,11.479,39.19-.558,110.762l-1.158,6.87-6.609-2.31C1150.521-714.35,1132.561-722.444,1116.776-731.724Z" transform="translate(-1070.174 828.044)" fill="none" stroke="#eef0f2" stroke-width="1"/>
        </g>
        <g id="Group_23170-7" data-name="Group 23170" transform="translate(-30.13 975.755) rotate(-25)" style="isolation: isolate">
          <path id="Path_1337-7" data-name="Path 1337" d="M962.865-776.491a181.326,181.326,0,0,1-42.1,22.063l-5.317,1.93-1.544-5.442c-14.2-50.013-8.029-96.778-7.759-98.745l.713-5.188,5.2.711c1.452.2,36.217,5.29,90.151,41.709l5.178,3.5-4.323,4.493C989.512-797.381,976.268-785.832,962.865-776.491Z" transform="translate(-913.459 852.427)" fill="none" stroke="#eef0f2" stroke-width="1"/>
        </g>
      </g>
    </g>
    <g transform="translate(1641 -776.345)">
      <g id="Group_23172-8" data-name="Group 23172">
        <g id="Group_23167-8" data-name="Group 23167" transform="matrix(0.602, 0.799, -0.799, 0.602, 333.323, 949.27)" style="isolation: isolate">
          <path id="Path_1332-8" data-name="Path 1332" d="M1113.167-756.224a194.313,194.313,0,0,1-44.731,24.385l-5.669,2.174-1.74-5.784c-16.065-53.158-10.259-103.238-10-105.339l.67-5.556,5.581.654c1.573.182,38.9,4.945,97.313,42.815l5.608,3.637-4.553,4.875C1141.361-779.06,1127.378-766.456,1113.167-756.224Z" transform="translate(-1033.456 784.782)" fill="none" stroke="#eef0f2" stroke-width="1"/>
        </g>
        <g id="Group_23168-8" data-name="Group 23168" transform="matrix(0.139, -0.99, 0.99, 0.139, 120.6, 1120.38)" style="isolation: isolate">
          <path id="Path_1333-8" data-name="Path 1333" d="M1116.776-731.724a203.139,203.139,0,0,1-42.15-32.517l-4.453-4.5,4.833-4.084c44.444-37.543,95.074-52.912,97.2-53.549l5.636-1.673,1.695,5.6c.469,1.564,11.479,39.19-.558,110.762l-1.158,6.87-6.609-2.31C1150.521-714.35,1132.561-722.444,1116.776-731.724Z" transform="translate(-1070.174 828.044)" fill="none" stroke="#eef0f2" stroke-width="1"/>
        </g>
        <g id="Group_23170-8" data-name="Group 23170" transform="translate(-30.13 975.755) rotate(-25)" style="isolation: isolate">
          <path id="Path_1337-8" data-name="Path 1337" d="M962.865-776.491a181.326,181.326,0,0,1-42.1,22.063l-5.317,1.93-1.544-5.442c-14.2-50.013-8.029-96.778-7.759-98.745l.713-5.188,5.2.711c1.452.2,36.217,5.29,90.151,41.709l5.178,3.5-4.323,4.493C989.512-797.381,976.268-785.832,962.865-776.491Z" transform="translate(-913.459 852.427)" fill="none" stroke="#eef0f2" stroke-width="1"/>
        </g>
      </g>
    </g>
    <g transform="translate(0 -590.345)">
      <g id="Group_23172-9" data-name="Group 23172">
        <g id="Group_23167-9" data-name="Group 23167" transform="matrix(0.602, 0.799, -0.799, 0.602, 333.323, 949.27)" style="isolation: isolate">
          <path id="Path_1332-9" data-name="Path 1332" d="M1113.167-756.224a194.313,194.313,0,0,1-44.731,24.385l-5.669,2.174-1.74-5.784c-16.065-53.158-10.259-103.238-10-105.339l.67-5.556,5.581.654c1.573.182,38.9,4.945,97.313,42.815l5.608,3.637-4.553,4.875C1141.361-779.06,1127.378-766.456,1113.167-756.224Z" transform="translate(-1033.456 784.782)" fill="none" stroke="#eef0f2" stroke-width="1"/>
        </g>
        <g id="Group_23168-9" data-name="Group 23168" transform="matrix(0.139, -0.99, 0.99, 0.139, 120.6, 1120.38)" style="isolation: isolate">
          <path id="Path_1333-9" data-name="Path 1333" d="M1116.776-731.724a203.139,203.139,0,0,1-42.15-32.517l-4.453-4.5,4.833-4.084c44.444-37.543,95.074-52.912,97.2-53.549l5.636-1.673,1.695,5.6c.469,1.564,11.479,39.19-.558,110.762l-1.158,6.87-6.609-2.31C1150.521-714.35,1132.561-722.444,1116.776-731.724Z" transform="translate(-1070.174 828.044)" fill="none" stroke="#eef0f2" stroke-width="1"/>
        </g>
        <g id="Group_23170-9" data-name="Group 23170" transform="translate(-30.13 975.755) rotate(-25)" style="isolation: isolate">
          <path id="Path_1337-9" data-name="Path 1337" d="M962.865-776.491a181.326,181.326,0,0,1-42.1,22.063l-5.317,1.93-1.544-5.442c-14.2-50.013-8.029-96.778-7.759-98.745l.713-5.188,5.2.711c1.452.2,36.217,5.29,90.151,41.709l5.178,3.5-4.323,4.493C989.512-797.381,976.268-785.832,962.865-776.491Z" transform="translate(-913.459 852.427)" fill="none" stroke="#eef0f2" stroke-width="1"/>
        </g>
      </g>
    </g>
    <g transform="translate(547 -590.345)">
      <g id="Group_23172-10" data-name="Group 23172">
        <g id="Group_23167-10" data-name="Group 23167" transform="matrix(0.602, 0.799, -0.799, 0.602, 333.323, 949.27)" style="isolation: isolate">
          <path id="Path_1332-10" data-name="Path 1332" d="M1113.167-756.224a194.313,194.313,0,0,1-44.731,24.385l-5.669,2.174-1.74-5.784c-16.065-53.158-10.259-103.238-10-105.339l.67-5.556,5.581.654c1.573.182,38.9,4.945,97.313,42.815l5.608,3.637-4.553,4.875C1141.361-779.06,1127.378-766.456,1113.167-756.224Z" transform="translate(-1033.456 784.782)" fill="none" stroke="#eef0f2" stroke-width="1"/>
        </g>
        <g id="Group_23168-10" data-name="Group 23168" transform="matrix(0.139, -0.99, 0.99, 0.139, 120.6, 1120.38)" style="isolation: isolate">
          <path id="Path_1333-10" data-name="Path 1333" d="M1116.776-731.724a203.139,203.139,0,0,1-42.15-32.517l-4.453-4.5,4.833-4.084c44.444-37.543,95.074-52.912,97.2-53.549l5.636-1.673,1.695,5.6c.469,1.564,11.479,39.19-.558,110.762l-1.158,6.87-6.609-2.31C1150.521-714.35,1132.561-722.444,1116.776-731.724Z" transform="translate(-1070.174 828.044)" fill="none" stroke="#eef0f2" stroke-width="1"/>
        </g>
        <g id="Group_23170-10" data-name="Group 23170" transform="translate(-30.13 975.755) rotate(-25)" style="isolation: isolate">
          <path id="Path_1337-10" data-name="Path 1337" d="M962.865-776.491a181.326,181.326,0,0,1-42.1,22.063l-5.317,1.93-1.544-5.442c-14.2-50.013-8.029-96.778-7.759-98.745l.713-5.188,5.2.711c1.452.2,36.217,5.29,90.151,41.709l5.178,3.5-4.323,4.493C989.512-797.381,976.268-785.832,962.865-776.491Z" transform="translate(-913.459 852.427)" fill="none" stroke="#eef0f2" stroke-width="1"/>
        </g>
      </g>
    </g>
    <g transform="translate(1094 -590.345)">
      <g id="Group_23172-11" data-name="Group 23172">
        <g id="Group_23167-11" data-name="Group 23167" transform="matrix(0.602, 0.799, -0.799, 0.602, 333.323, 949.27)" style="isolation: isolate">
          <path id="Path_1332-11" data-name="Path 1332" d="M1113.167-756.224a194.313,194.313,0,0,1-44.731,24.385l-5.669,2.174-1.74-5.784c-16.065-53.158-10.259-103.238-10-105.339l.67-5.556,5.581.654c1.573.182,38.9,4.945,97.313,42.815l5.608,3.637-4.553,4.875C1141.361-779.06,1127.378-766.456,1113.167-756.224Z" transform="translate(-1033.456 784.782)" fill="none" stroke="#eef0f2" stroke-width="1"/>
        </g>
        <g id="Group_23168-11" data-name="Group 23168" transform="matrix(0.139, -0.99, 0.99, 0.139, 120.6, 1120.38)" style="isolation: isolate">
          <path id="Path_1333-11" data-name="Path 1333" d="M1116.776-731.724a203.139,203.139,0,0,1-42.15-32.517l-4.453-4.5,4.833-4.084c44.444-37.543,95.074-52.912,97.2-53.549l5.636-1.673,1.695,5.6c.469,1.564,11.479,39.19-.558,110.762l-1.158,6.87-6.609-2.31C1150.521-714.35,1132.561-722.444,1116.776-731.724Z" transform="translate(-1070.174 828.044)" fill="none" stroke="#eef0f2" stroke-width="1"/>
        </g>
        <g id="Group_23170-11" data-name="Group 23170" transform="translate(-30.13 975.755) rotate(-25)" style="isolation: isolate">
          <path id="Path_1337-11" data-name="Path 1337" d="M962.865-776.491a181.326,181.326,0,0,1-42.1,22.063l-5.317,1.93-1.544-5.442c-14.2-50.013-8.029-96.778-7.759-98.745l.713-5.188,5.2.711c1.452.2,36.217,5.29,90.151,41.709l5.178,3.5-4.323,4.493C989.512-797.381,976.268-785.832,962.865-776.491Z" transform="translate(-913.459 852.427)" fill="none" stroke="#eef0f2" stroke-width="1"/>
        </g>
      </g>
    </g>
    <g transform="translate(1641 -590.345)">
      <g id="Group_23172-12" data-name="Group 23172">
        <g id="Group_23167-12" data-name="Group 23167" transform="matrix(0.602, 0.799, -0.799, 0.602, 333.323, 949.27)" style="isolation: isolate">
          <path id="Path_1332-12" data-name="Path 1332" d="M1113.167-756.224a194.313,194.313,0,0,1-44.731,24.385l-5.669,2.174-1.74-5.784c-16.065-53.158-10.259-103.238-10-105.339l.67-5.556,5.581.654c1.573.182,38.9,4.945,97.313,42.815l5.608,3.637-4.553,4.875C1141.361-779.06,1127.378-766.456,1113.167-756.224Z" transform="translate(-1033.456 784.782)" fill="none" stroke="#eef0f2" stroke-width="1"/>
        </g>
        <g id="Group_23168-12" data-name="Group 23168" transform="matrix(0.139, -0.99, 0.99, 0.139, 120.6, 1120.38)" style="isolation: isolate">
          <path id="Path_1333-12" data-name="Path 1333" d="M1116.776-731.724a203.139,203.139,0,0,1-42.15-32.517l-4.453-4.5,4.833-4.084c44.444-37.543,95.074-52.912,97.2-53.549l5.636-1.673,1.695,5.6c.469,1.564,11.479,39.19-.558,110.762l-1.158,6.87-6.609-2.31C1150.521-714.35,1132.561-722.444,1116.776-731.724Z" transform="translate(-1070.174 828.044)" fill="none" stroke="#eef0f2" stroke-width="1"/>
        </g>
        <g id="Group_23170-12" data-name="Group 23170" transform="translate(-30.13 975.755) rotate(-25)" style="isolation: isolate">
          <path id="Path_1337-12" data-name="Path 1337" d="M962.865-776.491a181.326,181.326,0,0,1-42.1,22.063l-5.317,1.93-1.544-5.442c-14.2-50.013-8.029-96.778-7.759-98.745l.713-5.188,5.2.711c1.452.2,36.217,5.29,90.151,41.709l5.178,3.5-4.323,4.493C989.512-797.381,976.268-785.832,962.865-776.491Z" transform="translate(-913.459 852.427)" fill="none" stroke="#eef0f2" stroke-width="1"/>
        </g>
      </g>
    </g>
    <g transform="translate(0 -404.345)">
      <g id="Group_23172-13" data-name="Group 23172">
        <g id="Group_23167-13" data-name="Group 23167" transform="matrix(0.602, 0.799, -0.799, 0.602, 333.323, 949.27)" style="isolation: isolate">
          <path id="Path_1332-13" data-name="Path 1332" d="M1113.167-756.224a194.313,194.313,0,0,1-44.731,24.385l-5.669,2.174-1.74-5.784c-16.065-53.158-10.259-103.238-10-105.339l.67-5.556,5.581.654c1.573.182,38.9,4.945,97.313,42.815l5.608,3.637-4.553,4.875C1141.361-779.06,1127.378-766.456,1113.167-756.224Z" transform="translate(-1033.456 784.782)" fill="none" stroke="#eef0f2" stroke-width="1"/>
        </g>
        <g id="Group_23168-13" data-name="Group 23168" transform="matrix(0.139, -0.99, 0.99, 0.139, 120.6, 1120.38)" style="isolation: isolate">
          <path id="Path_1333-13" data-name="Path 1333" d="M1116.776-731.724a203.139,203.139,0,0,1-42.15-32.517l-4.453-4.5,4.833-4.084c44.444-37.543,95.074-52.912,97.2-53.549l5.636-1.673,1.695,5.6c.469,1.564,11.479,39.19-.558,110.762l-1.158,6.87-6.609-2.31C1150.521-714.35,1132.561-722.444,1116.776-731.724Z" transform="translate(-1070.174 828.044)" fill="none" stroke="#eef0f2" stroke-width="1"/>
        </g>
        <g id="Group_23170-13" data-name="Group 23170" transform="translate(-30.13 975.755) rotate(-25)" style="isolation: isolate">
          <path id="Path_1337-13" data-name="Path 1337" d="M962.865-776.491a181.326,181.326,0,0,1-42.1,22.063l-5.317,1.93-1.544-5.442c-14.2-50.013-8.029-96.778-7.759-98.745l.713-5.188,5.2.711c1.452.2,36.217,5.29,90.151,41.709l5.178,3.5-4.323,4.493C989.512-797.381,976.268-785.832,962.865-776.491Z" transform="translate(-913.459 852.427)" fill="none" stroke="#eef0f2" stroke-width="1"/>
        </g>
      </g>
    </g>
    <g transform="translate(547 -404.345)">
      <g id="Group_23172-14" data-name="Group 23172">
        <g id="Group_23167-14" data-name="Group 23167" transform="matrix(0.602, 0.799, -0.799, 0.602, 333.323, 949.27)" style="isolation: isolate">
          <path id="Path_1332-14" data-name="Path 1332" d="M1113.167-756.224a194.313,194.313,0,0,1-44.731,24.385l-5.669,2.174-1.74-5.784c-16.065-53.158-10.259-103.238-10-105.339l.67-5.556,5.581.654c1.573.182,38.9,4.945,97.313,42.815l5.608,3.637-4.553,4.875C1141.361-779.06,1127.378-766.456,1113.167-756.224Z" transform="translate(-1033.456 784.782)" fill="none" stroke="#eef0f2" stroke-width="1"/>
        </g>
        <g id="Group_23168-14" data-name="Group 23168" transform="matrix(0.139, -0.99, 0.99, 0.139, 120.6, 1120.38)" style="isolation: isolate">
          <path id="Path_1333-14" data-name="Path 1333" d="M1116.776-731.724a203.139,203.139,0,0,1-42.15-32.517l-4.453-4.5,4.833-4.084c44.444-37.543,95.074-52.912,97.2-53.549l5.636-1.673,1.695,5.6c.469,1.564,11.479,39.19-.558,110.762l-1.158,6.87-6.609-2.31C1150.521-714.35,1132.561-722.444,1116.776-731.724Z" transform="translate(-1070.174 828.044)" fill="none" stroke="#eef0f2" stroke-width="1"/>
        </g>
        <g id="Group_23170-14" data-name="Group 23170" transform="translate(-30.13 975.755) rotate(-25)" style="isolation: isolate">
          <path id="Path_1337-14" data-name="Path 1337" d="M962.865-776.491a181.326,181.326,0,0,1-42.1,22.063l-5.317,1.93-1.544-5.442c-14.2-50.013-8.029-96.778-7.759-98.745l.713-5.188,5.2.711c1.452.2,36.217,5.29,90.151,41.709l5.178,3.5-4.323,4.493C989.512-797.381,976.268-785.832,962.865-776.491Z" transform="translate(-913.459 852.427)" fill="none" stroke="#eef0f2" stroke-width="1"/>
        </g>
      </g>
    </g>
    <g transform="translate(1094 -404.345)">
      <g id="Group_23172-15" data-name="Group 23172">
        <g id="Group_23167-15" data-name="Group 23167" transform="matrix(0.602, 0.799, -0.799, 0.602, 333.323, 949.27)" style="isolation: isolate">
          <path id="Path_1332-15" data-name="Path 1332" d="M1113.167-756.224a194.313,194.313,0,0,1-44.731,24.385l-5.669,2.174-1.74-5.784c-16.065-53.158-10.259-103.238-10-105.339l.67-5.556,5.581.654c1.573.182,38.9,4.945,97.313,42.815l5.608,3.637-4.553,4.875C1141.361-779.06,1127.378-766.456,1113.167-756.224Z" transform="translate(-1033.456 784.782)" fill="none" stroke="#eef0f2" stroke-width="1"/>
        </g>
        <g id="Group_23168-15" data-name="Group 23168" transform="matrix(0.139, -0.99, 0.99, 0.139, 120.6, 1120.38)" style="isolation: isolate">
          <path id="Path_1333-15" data-name="Path 1333" d="M1116.776-731.724a203.139,203.139,0,0,1-42.15-32.517l-4.453-4.5,4.833-4.084c44.444-37.543,95.074-52.912,97.2-53.549l5.636-1.673,1.695,5.6c.469,1.564,11.479,39.19-.558,110.762l-1.158,6.87-6.609-2.31C1150.521-714.35,1132.561-722.444,1116.776-731.724Z" transform="translate(-1070.174 828.044)" fill="none" stroke="#eef0f2" stroke-width="1"/>
        </g>
        <g id="Group_23170-15" data-name="Group 23170" transform="translate(-30.13 975.755) rotate(-25)" style="isolation: isolate">
          <path id="Path_1337-15" data-name="Path 1337" d="M962.865-776.491a181.326,181.326,0,0,1-42.1,22.063l-5.317,1.93-1.544-5.442c-14.2-50.013-8.029-96.778-7.759-98.745l.713-5.188,5.2.711c1.452.2,36.217,5.29,90.151,41.709l5.178,3.5-4.323,4.493C989.512-797.381,976.268-785.832,962.865-776.491Z" transform="translate(-913.459 852.427)" fill="none" stroke="#eef0f2" stroke-width="1"/>
        </g>
      </g>
    </g>
    <g transform="translate(1641 -404.345)">
      <g id="Group_23172-16" data-name="Group 23172">
        <g id="Group_23167-16" data-name="Group 23167" transform="matrix(0.602, 0.799, -0.799, 0.602, 333.323, 949.27)" style="isolation: isolate">
          <path id="Path_1332-16" data-name="Path 1332" d="M1113.167-756.224a194.313,194.313,0,0,1-44.731,24.385l-5.669,2.174-1.74-5.784c-16.065-53.158-10.259-103.238-10-105.339l.67-5.556,5.581.654c1.573.182,38.9,4.945,97.313,42.815l5.608,3.637-4.553,4.875C1141.361-779.06,1127.378-766.456,1113.167-756.224Z" transform="translate(-1033.456 784.782)" fill="none" stroke="#eef0f2" stroke-width="1"/>
        </g>
        <g id="Group_23168-16" data-name="Group 23168" transform="matrix(0.139, -0.99, 0.99, 0.139, 120.6, 1120.38)" style="isolation: isolate">
          <path id="Path_1333-16" data-name="Path 1333" d="M1116.776-731.724a203.139,203.139,0,0,1-42.15-32.517l-4.453-4.5,4.833-4.084c44.444-37.543,95.074-52.912,97.2-53.549l5.636-1.673,1.695,5.6c.469,1.564,11.479,39.19-.558,110.762l-1.158,6.87-6.609-2.31C1150.521-714.35,1132.561-722.444,1116.776-731.724Z" transform="translate(-1070.174 828.044)" fill="none" stroke="#eef0f2" stroke-width="1"/>
        </g>
        <g id="Group_23170-16" data-name="Group 23170" transform="translate(-30.13 975.755) rotate(-25)" style="isolation: isolate">
          <path id="Path_1337-16" data-name="Path 1337" d="M962.865-776.491a181.326,181.326,0,0,1-42.1,22.063l-5.317,1.93-1.544-5.442c-14.2-50.013-8.029-96.778-7.759-98.745l.713-5.188,5.2.711c1.452.2,36.217,5.29,90.151,41.709l5.178,3.5-4.323,4.493C989.512-797.381,976.268-785.832,962.865-776.491Z" transform="translate(-913.459 852.427)" fill="none" stroke="#eef0f2" stroke-width="1"/>
        </g>
      </g>
    </g>
    <g transform="translate(0 -218.345)">
      <g id="Group_23172-17" data-name="Group 23172">
        <g id="Group_23167-17" data-name="Group 23167" transform="matrix(0.602, 0.799, -0.799, 0.602, 333.323, 949.27)" style="isolation: isolate">
          <path id="Path_1332-17" data-name="Path 1332" d="M1113.167-756.224a194.313,194.313,0,0,1-44.731,24.385l-5.669,2.174-1.74-5.784c-16.065-53.158-10.259-103.238-10-105.339l.67-5.556,5.581.654c1.573.182,38.9,4.945,97.313,42.815l5.608,3.637-4.553,4.875C1141.361-779.06,1127.378-766.456,1113.167-756.224Z" transform="translate(-1033.456 784.782)" fill="none" stroke="#eef0f2" stroke-width="1"/>
        </g>
        <g id="Group_23168-17" data-name="Group 23168" transform="matrix(0.139, -0.99, 0.99, 0.139, 120.6, 1120.38)" style="isolation: isolate">
          <path id="Path_1333-17" data-name="Path 1333" d="M1116.776-731.724a203.139,203.139,0,0,1-42.15-32.517l-4.453-4.5,4.833-4.084c44.444-37.543,95.074-52.912,97.2-53.549l5.636-1.673,1.695,5.6c.469,1.564,11.479,39.19-.558,110.762l-1.158,6.87-6.609-2.31C1150.521-714.35,1132.561-722.444,1116.776-731.724Z" transform="translate(-1070.174 828.044)" fill="none" stroke="#eef0f2" stroke-width="1"/>
        </g>
        <g id="Group_23170-17" data-name="Group 23170" transform="translate(-30.13 975.755) rotate(-25)" style="isolation: isolate">
          <path id="Path_1337-17" data-name="Path 1337" d="M962.865-776.491a181.326,181.326,0,0,1-42.1,22.063l-5.317,1.93-1.544-5.442c-14.2-50.013-8.029-96.778-7.759-98.745l.713-5.188,5.2.711c1.452.2,36.217,5.29,90.151,41.709l5.178,3.5-4.323,4.493C989.512-797.381,976.268-785.832,962.865-776.491Z" transform="translate(-913.459 852.427)" fill="none" stroke="#eef0f2" stroke-width="1"/>
        </g>
      </g>
    </g>
    <g transform="translate(547 -218.345)">
      <g id="Group_23172-18" data-name="Group 23172">
        <g id="Group_23167-18" data-name="Group 23167" transform="matrix(0.602, 0.799, -0.799, 0.602, 333.323, 949.27)" style="isolation: isolate">
          <path id="Path_1332-18" data-name="Path 1332" d="M1113.167-756.224a194.313,194.313,0,0,1-44.731,24.385l-5.669,2.174-1.74-5.784c-16.065-53.158-10.259-103.238-10-105.339l.67-5.556,5.581.654c1.573.182,38.9,4.945,97.313,42.815l5.608,3.637-4.553,4.875C1141.361-779.06,1127.378-766.456,1113.167-756.224Z" transform="translate(-1033.456 784.782)" fill="none" stroke="#eef0f2" stroke-width="1"/>
        </g>
        <g id="Group_23168-18" data-name="Group 23168" transform="matrix(0.139, -0.99, 0.99, 0.139, 120.6, 1120.38)" style="isolation: isolate">
          <path id="Path_1333-18" data-name="Path 1333" d="M1116.776-731.724a203.139,203.139,0,0,1-42.15-32.517l-4.453-4.5,4.833-4.084c44.444-37.543,95.074-52.912,97.2-53.549l5.636-1.673,1.695,5.6c.469,1.564,11.479,39.19-.558,110.762l-1.158,6.87-6.609-2.31C1150.521-714.35,1132.561-722.444,1116.776-731.724Z" transform="translate(-1070.174 828.044)" fill="none" stroke="#eef0f2" stroke-width="1"/>
        </g>
        <g id="Group_23170-18" data-name="Group 23170" transform="translate(-30.13 975.755) rotate(-25)" style="isolation: isolate">
          <path id="Path_1337-18" data-name="Path 1337" d="M962.865-776.491a181.326,181.326,0,0,1-42.1,22.063l-5.317,1.93-1.544-5.442c-14.2-50.013-8.029-96.778-7.759-98.745l.713-5.188,5.2.711c1.452.2,36.217,5.29,90.151,41.709l5.178,3.5-4.323,4.493C989.512-797.381,976.268-785.832,962.865-776.491Z" transform="translate(-913.459 852.427)" fill="none" stroke="#eef0f2" stroke-width="1"/>
        </g>
      </g>
    </g>
    <g transform="translate(1094 -218.345)">
      <g id="Group_23172-19" data-name="Group 23172">
        <g id="Group_23167-19" data-name="Group 23167" transform="matrix(0.602, 0.799, -0.799, 0.602, 333.323, 949.27)" style="isolation: isolate">
          <path id="Path_1332-19" data-name="Path 1332" d="M1113.167-756.224a194.313,194.313,0,0,1-44.731,24.385l-5.669,2.174-1.74-5.784c-16.065-53.158-10.259-103.238-10-105.339l.67-5.556,5.581.654c1.573.182,38.9,4.945,97.313,42.815l5.608,3.637-4.553,4.875C1141.361-779.06,1127.378-766.456,1113.167-756.224Z" transform="translate(-1033.456 784.782)" fill="none" stroke="#eef0f2" stroke-width="1"/>
        </g>
        <g id="Group_23168-19" data-name="Group 23168" transform="matrix(0.139, -0.99, 0.99, 0.139, 120.6, 1120.38)" style="isolation: isolate">
          <path id="Path_1333-19" data-name="Path 1333" d="M1116.776-731.724a203.139,203.139,0,0,1-42.15-32.517l-4.453-4.5,4.833-4.084c44.444-37.543,95.074-52.912,97.2-53.549l5.636-1.673,1.695,5.6c.469,1.564,11.479,39.19-.558,110.762l-1.158,6.87-6.609-2.31C1150.521-714.35,1132.561-722.444,1116.776-731.724Z" transform="translate(-1070.174 828.044)" fill="none" stroke="#eef0f2" stroke-width="1"/>
        </g>
        <g id="Group_23170-19" data-name="Group 23170" transform="translate(-30.13 975.755) rotate(-25)" style="isolation: isolate">
          <path id="Path_1337-19" data-name="Path 1337" d="M962.865-776.491a181.326,181.326,0,0,1-42.1,22.063l-5.317,1.93-1.544-5.442c-14.2-50.013-8.029-96.778-7.759-98.745l.713-5.188,5.2.711c1.452.2,36.217,5.29,90.151,41.709l5.178,3.5-4.323,4.493C989.512-797.381,976.268-785.832,962.865-776.491Z" transform="translate(-913.459 852.427)" fill="none" stroke="#eef0f2" stroke-width="1"/>
        </g>
      </g>
    </g>
    <g transform="translate(1641 -218.345)">
      <g id="Group_23172-20" data-name="Group 23172">
        <g id="Group_23167-20" data-name="Group 23167" transform="matrix(0.602, 0.799, -0.799, 0.602, 333.323, 949.27)" style="isolation: isolate">
          <path id="Path_1332-20" data-name="Path 1332" d="M1113.167-756.224a194.313,194.313,0,0,1-44.731,24.385l-5.669,2.174-1.74-5.784c-16.065-53.158-10.259-103.238-10-105.339l.67-5.556,5.581.654c1.573.182,38.9,4.945,97.313,42.815l5.608,3.637-4.553,4.875C1141.361-779.06,1127.378-766.456,1113.167-756.224Z" transform="translate(-1033.456 784.782)" fill="none" stroke="#eef0f2" stroke-width="1"/>
        </g>
        <g id="Group_23168-20" data-name="Group 23168" transform="matrix(0.139, -0.99, 0.99, 0.139, 120.6, 1120.38)" style="isolation: isolate">
          <path id="Path_1333-20" data-name="Path 1333" d="M1116.776-731.724a203.139,203.139,0,0,1-42.15-32.517l-4.453-4.5,4.833-4.084c44.444-37.543,95.074-52.912,97.2-53.549l5.636-1.673,1.695,5.6c.469,1.564,11.479,39.19-.558,110.762l-1.158,6.87-6.609-2.31C1150.521-714.35,1132.561-722.444,1116.776-731.724Z" transform="translate(-1070.174 828.044)" fill="none" stroke="#eef0f2" stroke-width="1"/>
        </g>
        <g id="Group_23170-20" data-name="Group 23170" transform="translate(-30.13 975.755) rotate(-25)" style="isolation: isolate">
          <path id="Path_1337-20" data-name="Path 1337" d="M962.865-776.491a181.326,181.326,0,0,1-42.1,22.063l-5.317,1.93-1.544-5.442c-14.2-50.013-8.029-96.778-7.759-98.745l.713-5.188,5.2.711c1.452.2,36.217,5.29,90.151,41.709l5.178,3.5-4.323,4.493C989.512-797.381,976.268-785.832,962.865-776.491Z" transform="translate(-913.459 852.427)" fill="none" stroke="#eef0f2" stroke-width="1"/>
        </g>
      </g>
    </g>
  </g>
</svg>
