<svg xmlns="http://www.w3.org/2000/svg" width="21.301" height="24.851" viewBox="0 0 21.301 24.851">
  <path id="PDF" d="M22.928,7.473a3.227,3.227,0,0,1,.666,1.054,3.2,3.2,0,0,1,.277,1.22V25.723a1.326,1.326,0,0,1-1.331,1.331H3.9a1.326,1.326,0,0,1-1.331-1.331V3.535A1.326,1.326,0,0,1,3.9,2.2H16.327a3.2,3.2,0,0,1,1.22.277,3.227,3.227,0,0,1,1.054.666ZM16.771,4.089V9.3h5.214a1.515,1.515,0,0,0-.305-.569L17.34,4.395a1.515,1.515,0,0,0-.569-.305ZM22.1,25.279v-14.2H16.327A1.326,1.326,0,0,1,15,9.747V3.979H4.346v21.3H22.1Zm-7.128-8.223a10.552,10.552,0,0,0,1.165.777,13.761,13.761,0,0,1,1.622-.1q2.039,0,2.455.68a.67.67,0,0,1,.028.721.04.04,0,0,1-.014.028l-.028.028v.014q-.083.527-.985.527a5.721,5.721,0,0,1-1.595-.277,10.112,10.112,0,0,1-1.8-.735,24.971,24.971,0,0,0-5.436,1.151Q8.256,23.5,7.022,23.5a.807.807,0,0,1-.388-.1L6.3,23.24q-.014-.014-.083-.069a.573.573,0,0,1-.083-.5A3.012,3.012,0,0,1,6.911,21.4a6.7,6.7,0,0,1,1.831-1.338.2.2,0,0,1,.319.083.08.08,0,0,1,.028.055q.721-1.179,1.484-2.732a21.166,21.166,0,0,0,1.442-3.633,11.21,11.21,0,0,1-.423-2.212,5.392,5.392,0,0,1,.09-1.768q.153-.555.582-.555h.305a.585.585,0,0,1,.485.208,1.108,1.108,0,0,1,.125.943.3.3,0,0,1-.055.111.361.361,0,0,1,.014.111v.416a18.159,18.159,0,0,1-.194,2.663,7.016,7.016,0,0,0,2.025,3.3Zm-7.988,5.7a6.123,6.123,0,0,0,1.9-2.191,7.905,7.905,0,0,0-1.213,1.165A4.609,4.609,0,0,0,6.981,22.755ZM12.5,10a4.123,4.123,0,0,0-.028,1.831q.014-.1.1-.61,0-.042.1-.6a.312.312,0,0,1,.055-.111.04.04,0,0,1-.014-.028.028.028,0,0,0-.007-.021.028.028,0,0,1-.007-.021.8.8,0,0,0-.18-.5.04.04,0,0,1-.014.028V10Zm-1.72,9.166a20.341,20.341,0,0,1,3.938-1.123,2.092,2.092,0,0,1-.18-.132,2.483,2.483,0,0,1-.222-.187,7.346,7.346,0,0,1-1.761-2.441A18.532,18.532,0,0,1,11.4,18.012q-.416.777-.624,1.151Zm8.958-.222a3.319,3.319,0,0,0-1.941-.333,5.245,5.245,0,0,0,1.72.388,1.345,1.345,0,0,0,.25-.014q0-.014-.028-.042Z" transform="translate(-2.571 -2.203)" fill="#3ca078"/>
</svg>
