<svg xmlns="http://www.w3.org/2000/svg" width="30.983" height="44.211" viewBox="0 0 30.983 44.211">
  <g id="servIcon19" transform="translate(5.754 5.328)">
    <g id="Icon" transform="translate(-5.754 -5.328)">
      <path id="Path_130066" data-name="Path 130066" d="M28.975,2.007A6.84,6.84,0,0,0,24.129,0H6.854A6.854,6.854,0,0,0,0,6.854v30.5a6.855,6.855,0,0,0,6.854,6.854H24.129a6.856,6.856,0,0,0,6.854-6.854V6.854a6.84,6.84,0,0,0-2.008-4.847M27.408,37.357a3.279,3.279,0,0,1-3.279,3.279H6.854a3.279,3.279,0,0,1-3.279-3.279V23.5H27.408V37.357Zm0-16.642H3.575V6.854A3.279,3.279,0,0,1,6.854,3.575H24.129a3.279,3.279,0,0,1,3.279,3.279V20.715Z" transform="translate(0 0)" fill="#3ca078"/>
      <rect id="Rectangle_11668" data-name="Rectangle 11668" width="1.589" height="5.561" transform="translate(7.448 10.111)" fill="#3ca078"/>
      <rect id="Rectangle_11669" data-name="Rectangle 11669" width="1.589" height="5.561" transform="translate(7.448 28.539)" fill="#3ca078"/>
    </g>
  </g>
</svg>
