<svg xmlns="http://www.w3.org/2000/svg" width="48.232" height="43.393" viewBox="0 0 48.232 43.393">
  <g id="servIcon12" transform="translate(14.779 4.328)">
    <path id="Icon" d="M17.472,43.393a.974.974,0,0,1-.492-.123c-.738-.492-4.224-3.076-1.312-8.2a4.344,4.344,0,0,0,.7-3.4,2.539,2.539,0,0,0-1.394-1.435.982.982,0,0,1-.533-1.271.96.96,0,0,1,.9-.656,1.2,1.2,0,0,1,.369.082,4.443,4.443,0,0,1,2.584,2.584c.533,1.476.246,3.2-.861,5.127-2.051,3.609.123,5.209.574,5.5a1.027,1.027,0,0,1,.369,1.353A1.14,1.14,0,0,1,17.472,43.393Zm6.644-2.174a.974.974,0,0,1-.492-.123c-1.476-.861-3.568-3.527-1.23-7.711a3.849,3.849,0,0,0,.615-3.076,2.259,2.259,0,0,0-1.23-1.271,1,1,0,0,1,.328-1.928,1.2,1.2,0,0,1,.369.082,4.24,4.24,0,0,1,2.42,2.461,5.614,5.614,0,0,1-.779,4.758c-1.969,3.527.41,4.963.533,5a1.061,1.061,0,0,1,.451.574,1.041,1.041,0,0,1-.082.779A1.14,1.14,0,0,1,24.116,41.219Zm-13.617,0a.974.974,0,0,1-.492-.123c-1.476-.861-3.568-3.527-1.23-7.711a3.849,3.849,0,0,0,.615-3.076,2.259,2.259,0,0,0-1.23-1.271A1,1,0,0,1,8.49,27.11a1.2,1.2,0,0,1,.369.082,4.378,4.378,0,0,1,2.42,2.461,5.871,5.871,0,0,1-.779,4.8c-1.969,3.527.41,4.963.533,5a1.061,1.061,0,0,1,.451.574,1.041,1.041,0,0,1-.082.779A1.163,1.163,0,0,1,10.5,41.219Zm24.977-3.65a1.05,1.05,0,0,1-.779-.328,1.121,1.121,0,0,1-.328-.779,1.222,1.222,0,0,1,.7-1.066h.041V33.18L33.016,34.37v.041a1.012,1.012,0,0,1-.533.943.942.942,0,0,1-.574.164,1.037,1.037,0,0,1-.943-.533,1.081,1.081,0,0,1-.123-.861.957.957,0,0,1,.533-.656.9.9,0,0,1,.533-.164.942.942,0,0,1,.574.164L34.37,32.4l-1.846-1.066a2.024,2.024,0,0,1-.615.123,1.135,1.135,0,0,1-.533-.123,1.185,1.185,0,0,1-.41-1.518,1.154,1.154,0,0,1,.984-.533.942.942,0,0,1,.574.164,1.085,1.085,0,0,1,.533.943v.041l2.092,1.189V29.407h-.041a1.222,1.222,0,0,1-.7-1.066,1.1,1.1,0,0,1,1.107-1.107,1.145,1.145,0,0,1,.82.328,1.121,1.121,0,0,1,.328.779,1.089,1.089,0,0,1-.574.943h-.123v2.133l1.8-1.025V30.35a1.012,1.012,0,0,1,.533-.943.942.942,0,0,1,.574-.164,1.037,1.037,0,0,1,.943.533,1.081,1.081,0,0,1,.123.861.957.957,0,0,1-.533.656.9.9,0,0,1-.533.164.942.942,0,0,1-.574-.164L36.42,32.36l1.846,1.066a2.024,2.024,0,0,1,.615-.123,1.135,1.135,0,0,1,.533.123,1.185,1.185,0,0,1,.41,1.518,1.154,1.154,0,0,1-.984.533.942.942,0,0,1-.574-.164,1.085,1.085,0,0,1-.533-.943v-.041l-1.764-.984v2.133h.041a1,1,0,0,1,.574.943A1.112,1.112,0,0,1,35.477,37.569ZM5.619,24.608A5.6,5.6,0,0,1,0,18.989V5.619A5.6,5.6,0,0,1,5.619,0H42.613a5.6,5.6,0,0,1,5.619,5.619v13.37a5.6,5.6,0,0,1-5.619,5.619ZM5.045,2.461A2.715,2.715,0,0,0,2.379,5.25V19.523a2.741,2.741,0,0,0,2.666,2.789h38.1a2.715,2.715,0,0,0,2.666-2.789V5.25a2.741,2.741,0,0,0-2.666-2.789Zm1.107,16a.984.984,0,0,1,0-1.969H41.137a.984.984,0,0,1,0,1.969Zm0-4.142a.984.984,0,0,1,0-1.969H41.137a.984.984,0,0,1,0,1.969Z" transform="translate(-14.779 -4.328)" fill="#3ca078"/>
  </g>
</svg>
