<svg xmlns="http://www.w3.org/2000/svg" width="51.317" height="45.893" viewBox="0 0 51.317 45.893">
  <g id="servIcon1" transform="translate(16.188 5.578)">
    <path id="Icon" d="M47.676,10.239A4.052,4.052,0,0,0,43.825,7.5H13.992a4.078,4.078,0,0,0-3.851,2.739L4.5,26.484v21.7a2.72,2.72,0,0,0,2.712,2.712H9.924a2.72,2.72,0,0,0,2.712-2.712V45.469H45.181v2.712a2.72,2.72,0,0,0,2.712,2.712H50.6a2.72,2.72,0,0,0,2.712-2.712v-21.7ZM13.992,37.332a4.068,4.068,0,1,1,4.068-4.068A4.063,4.063,0,0,1,13.992,37.332Zm29.832,0a4.068,4.068,0,1,1,4.068-4.068A4.063,4.063,0,0,1,43.825,37.332Zm-33.9-13.56,4.068-12.2H43.825l4.068,12.2Z" transform="translate(-19.438 -11.828)" fill="none" stroke="#3ca078" stroke-width="2.5"/>
  </g>
</svg>
