<svg xmlns="http://www.w3.org/2000/svg" width="29.191" height="43.394" viewBox="0 0 29.191 43.394">
  <g id="servIcon13" transform="translate(4.52 4.328)">
    <path id="Icon" d="M29.191,14.6A14.6,14.6,0,0,0,0,14.6a14.494,14.494,0,0,0,2.013,7.389h0l.005.008.009.016h0a25.605,25.605,0,0,0,3.3,4.139,10.887,10.887,0,0,1,1.271,1.7,3.12,3.12,0,0,1,.466,1.486v8.087a4.518,4.518,0,0,0,4.518,4.518h.647a2.645,2.645,0,0,0,4.728,0h.648a4.518,4.518,0,0,0,4.518-4.518V29.33h0a3.12,3.12,0,0,1,.466-1.486,16.446,16.446,0,0,1,2.1-2.62,18.255,18.255,0,0,0,2.474-3.215h0L27.172,22l.007-.011h0A14.492,14.492,0,0,0,29.191,14.6M19.327,39.136a2.42,2.42,0,0,1-1.72.713H11.584a2.433,2.433,0,0,1-2.433-2.433v-.451L19.333,39.13l-.005.007m.713-1.72A2.448,2.448,0,0,1,20,37.85L9.152,35.544V32.7L20.04,35.018Zm0-3.821L9.152,31.281V30.35H20.04Zm5.331-12.65-.009.014-.005.009a24.061,24.061,0,0,1-3.065,3.806,12.8,12.8,0,0,0-1.514,2.037,5.857,5.857,0,0,0-.588,1.452H9a5.822,5.822,0,0,0-.589-1.452,18.1,18.1,0,0,0-2.364-2.987A16.263,16.263,0,0,1,3.834,20.97l-.007-.011-.008-.013A12.509,12.509,0,1,1,27.106,14.6a12.414,12.414,0,0,1-1.735,6.35" transform="translate(-4.52 -4.328)" fill="#3ca078"/>
  </g>
</svg>
