<svg xmlns="http://www.w3.org/2000/svg" width="64.968" height="55.969" viewBox="0 0 64.968 55.969">
  <g id="servIcon21" transform="translate(11.498 16.381)">
    <rect id="Circle" width="44" height="44" rx="22" transform="translate(9.47 -16.381)" fill="#3ca078" opacity="0.2"/>
    <path id="Icon" d="M43.482,10.746,33.166.431a1.474,1.474,0,0,0-2.084,0L27.644,3.869a1.473,1.473,0,0,0,0,2.084l.677.677L1.856,33.1a6.336,6.336,0,1,0,8.961,8.961L37.282,15.591l.677.677a1.473,1.473,0,0,0,2.084,0l3.438-3.439a1.474,1.474,0,0,0,0-2.084M8.733,39.973A3.389,3.389,0,1,1,3.94,35.18L21.809,17.311,26.6,22.1ZM28.686,20.019l-4.793-4.793,6.512-6.512L35.2,13.507ZM39,13.143,30.77,4.911l1.355-1.354,8.231,8.231Z" transform="translate(-11.498 -4.325)" fill="#3ca078"/>
  </g>
</svg>
