<svg xmlns="http://www.w3.org/2000/svg" width="76.797" height="56.133" viewBox="0 0 76.797 56.133">
  <g id="servIcon27" transform="translate(23.327 16.381)">
    <rect id="Circle" width="44" height="44" rx="22" transform="translate(9.47 -16.381)" fill="#3ca078" opacity="0.2"/>
    <g id="Icon" transform="translate(-23.327 -4.382)">
      <path id="Path_130007" data-name="Path 130007" d="M313.893,0a7.683,7.683,0,1,0,7.683,7.683A7.692,7.692,0,0,0,313.893,0m0,12.753a5.07,5.07,0,1,1,5.07-5.07,5.076,5.076,0,0,1-5.07,5.07" transform="translate(-281.103)" fill="#3ca078"/>
      <path id="Path_130008" data-name="Path 130008" d="M104.876,95.37a6.314,6.314,0,1,0,6.314,6.314,6.321,6.321,0,0,0-6.314-6.314m0,10.014a3.7,3.7,0,1,1,3.7-3.7,3.7,3.7,0,0,1-3.7,3.7" transform="translate(-90.481 -87.55)" fill="#3ca078"/>
      <path id="Path_130009" data-name="Path 130009" d="M553.8,95.37a6.314,6.314,0,1,0,6.314,6.314A6.321,6.321,0,0,0,553.8,95.37m0,10.014a3.7,3.7,0,1,1,3.7-3.7,3.7,3.7,0,0,1-3.7,3.7" transform="translate(-502.596 -87.55)" fill="#3ca078"/>
      <path id="Path_130010" data-name="Path 130010" d="M64.288,235.039H60.614v-9.621a9.4,9.4,0,0,0-16.608-6.052,11.618,11.618,0,0,0-22.42,0,9.4,9.4,0,0,0-16.6,6.047v9.62H1.307a1.307,1.307,0,0,0,0,2.613H64.288a1.307,1.307,0,1,0,0-2.613m-43.11,0H7.6v-9.621a6.79,6.79,0,1,1,13.58,0v9.621Zm20.616,0h-18V222.429a9.006,9.006,0,1,1,18.012,0Zm16.207,0H44.417v-9.976A6.8,6.8,0,0,1,58,225.418Z" transform="translate(0 -193.518)" fill="#3ca078"/>
      <path id="Path_130011" data-name="Path 130011" d="M308.933,384.033a1.307,1.307,0,0,0-1.307,1.307v6.27a1.307,1.307,0,0,0,2.613,0v-6.27a1.307,1.307,0,0,0-1.307-1.307" transform="translate(-282.403 -352.545)" fill="#3ca078"/>
      <path id="Path_130012" data-name="Path 130012" d="M308.933,333.056a1.307,1.307,0,0,0-1.307,1.307v.279a1.307,1.307,0,0,0,2.613,0v-.279a1.307,1.307,0,0,0-1.307-1.307" transform="translate(-282.403 -305.747)" fill="#3ca078"/>
    </g>
  </g>
</svg>
