<svg xmlns="http://www.w3.org/2000/svg" width="46.393" height="46.393" viewBox="0 0 46.393 46.393">
  <g id="servIcon6" transform="translate(14.476 5.827)">
    <g id="Icon" transform="translate(-20.321 -11.672)">
      <path id="Path_129978" data-name="Path 129978" d="M296.005,291.667a4.339,4.339,0,1,1-4.339,4.339A4.339,4.339,0,0,1,296.005,291.667Z" transform="translate(-266.964 -266.965)" fill="none" stroke="#3ca078" stroke-miterlimit="133.333" stroke-width="3"/>
      <line id="Line_1" data-name="Line 1" x2="8.678" transform="translate(16.023 29.041)" fill="none" stroke="#3ca078" stroke-linecap="round" stroke-miterlimit="133.333" stroke-width="3"/>
      <line id="Line_2" data-name="Line 2" x2="8.678" transform="translate(33.38 29.041)" fill="none" stroke="#3ca078" stroke-linecap="round" stroke-miterlimit="133.333" stroke-width="3"/>
      <line id="Line_3" data-name="Line 3" y1="7.516" x2="4.339" transform="translate(22.532 32.799)" fill="none" stroke="#3ca078" stroke-linecap="round" stroke-miterlimit="133.333" stroke-width="3"/>
      <line id="Line_4" data-name="Line 4" y1="7.516" x2="4.339" transform="translate(31.211 17.768)" fill="none" stroke="#3ca078" stroke-linecap="round" stroke-miterlimit="133.333" stroke-width="3"/>
      <line id="Line_5" data-name="Line 5" x1="4.339" y1="7.516" transform="translate(31.211 32.799)" fill="none" stroke="#3ca078" stroke-linecap="round" stroke-miterlimit="133.333" stroke-width="3"/>
      <line id="Line_6" data-name="Line 6" x1="4.339" y1="7.516" transform="translate(22.532 17.768)" fill="none" stroke="#3ca078" stroke-linecap="round" stroke-miterlimit="133.333" stroke-width="3"/>
      <path id="Path_129979" data-name="Path 129979" d="M35.848,27.9A21.686,21.686,0,1,1,27.9,35.848" transform="translate(-17.655 -17.655)" fill="none" stroke="#3ca078" stroke-linecap="round" stroke-miterlimit="133.333" stroke-width="3"/>
      <path id="Path_129980" data-name="Path 129980" d="M177.86,182.628a13.012,13.012,0,1,1,4.767-4.767" transform="translate(-142.31 -142.311)" fill="none" stroke="#3ca078" stroke-linecap="round" stroke-miterlimit="133.333" stroke-width="3"/>
    </g>
  </g>
</svg>
