<svg xmlns="http://www.w3.org/2000/svg" width="73.969" height="52.97" viewBox="0 0 73.969 52.97">
  <g id="servIcon29" transform="translate(20.499 16.381)">
    <rect id="Circle" width="44" height="44" rx="22" transform="translate(9.47 -16.381)" fill="#3ca078" opacity="0.2"/>
    <g id="Icon" transform="translate(-20.529 -10.43)">
      <path id="Path_130015" data-name="Path 130015" d="M47.053,0a7.053,7.053,0,1,0,7.053,7.053A7.06,7.06,0,0,0,47.053,0m0,11.754a4.7,4.7,0,1,1,4.7-4.7,4.7,4.7,0,0,1-4.7,4.7" transform="translate(-37.619)" fill="#3ca078"/>
      <path id="Path_130016" data-name="Path 130016" d="M9.4,392.93H3.526a1.178,1.178,0,0,1-1.175-1.175V381.175a1.175,1.175,0,1,0-2.351,0v10.579a3.531,3.531,0,0,0,3.526,3.526H4.7v7.053H3.526a1.175,1.175,0,0,0,0,2.351h4.7a1.175,1.175,0,0,0,0-2.351H7.053v-7.053H9.4a1.079,1.079,0,0,1,1.175,1.187,1.175,1.175,0,0,0,2.351-.012A3.427,3.427,0,0,0,9.4,392.93" transform="translate(0.03 -357.667)" fill="#3ca078"/>
      <path id="Path_130017" data-name="Path 130017" d="M527.053,0a7.053,7.053,0,1,0,7.053,7.053A7.06,7.06,0,0,0,527.053,0m0,11.754a4.7,4.7,0,1,1,4.7-4.7,4.7,4.7,0,0,1-4.7,4.7" transform="translate(-489.408)" fill="#3ca078"/>
      <path id="Path_130018" data-name="Path 130018" d="M591.754,380a1.175,1.175,0,0,0-1.175,1.175v10.579a1.178,1.178,0,0,1-1.175,1.175h-5.877A3.427,3.427,0,0,0,580,396.456a1.175,1.175,0,0,0,2.351.012,1.079,1.079,0,0,1,1.175-1.187h2.351v7.053H584.7a1.175,1.175,0,1,0,0,2.351h4.7a1.175,1.175,0,0,0,0-2.351h-1.175v-7.053H589.4a3.531,3.531,0,0,0,3.526-3.526V381.175A1.175,1.175,0,0,0,591.754,380" transform="translate(-545.882 -357.667)" fill="#3ca078"/>
      <path id="Path_130019" data-name="Path 130019" d="M112.912,280a4.708,4.708,0,0,0-4.7,4.7v5.358l-3.526,1.175V289.4h1.175a1.175,1.175,0,1,0,0-2.351H91.754a1.175,1.175,0,1,0,0,2.351H92.93v1.832L89.4,290.06V284.7a4.7,4.7,0,1,0-9.4,0v9.4a2.35,2.35,0,0,0,1.78,2.28l7.96,1.99,2.059,10.3a2.351,2.351,0,0,0,2.305,1.889h9.4a2.351,2.351,0,0,0,2.305-1.889l2.059-10.3,7.96-1.99a2.35,2.35,0,0,0,1.78-2.28v-9.4a4.708,4.708,0,0,0-4.7-4.7M92.93,302.333l-1.175-5.877-9.4-2.351v-9.4a2.351,2.351,0,1,1,4.7,0v7.053l5.877,1.959Zm9.4-10.245v16.122H95.281V289.4h7.053Zm12.93,2.017-9.4,2.351-1.175,5.877v-8.62l5.877-1.959V284.7a2.351,2.351,0,1,1,4.7,0Z" transform="translate(-75.268 -263.544)" fill="#3ca078"/>
    </g>
  </g>
</svg>
