<svg xmlns="http://www.w3.org/2000/svg" width="56.191" height="41.277" viewBox="0 0 56.191 41.277">
  <g id="servIcon8" transform="translate(19.405 3.093)">
    <path id="Icon" d="M33.333,34.7l1.685,1.685a8.251,8.251,0,0,0,11.669,0l.635-.635a8.251,8.251,0,0,1,11.669,0l.635.635a8.251,8.251,0,0,0,11.669,0l.635-.635a8.251,8.251,0,0,1,11.669,0l1.684,1.685M33.333,51.1l1.685,1.685a8.251,8.251,0,0,0,11.669,0l.635-.635a8.251,8.251,0,0,1,11.669,0l.635.635a8.251,8.251,0,0,0,11.669,0l.635-.635a8.251,8.251,0,0,1,11.669,0l1.684,1.684M33.333,67.509l1.685,1.685a8.251,8.251,0,0,0,11.669,0l.635-.635a8.251,8.251,0,0,1,11.669,0l.635.635a8.251,8.251,0,0,0,11.669,0l.635-.635a8.251,8.251,0,0,1,11.669,0l1.684,1.684" transform="translate(-50.616 -34.926)" fill="none" stroke="#3ca078" stroke-linecap="round" stroke-linejoin="round" stroke-width="3"/>
  </g>
</svg>
