<svg xmlns="http://www.w3.org/2000/svg" width="67.043" height="67.504" viewBox="0 0 67.043 67.504">
  <g id="servIcon24" transform="translate(13.572 16.381)">
    <rect id="Circle" width="44" height="44" rx="22" transform="translate(9.47 -16.381)" fill="#3ca078" opacity="0.2"/>
    <g id="Icon" transform="translate(-13.572 -4.382)">
      <path id="Path_129998" data-name="Path 129998" d="M46.028,49.408l-7.348-17.74a.886.886,0,1,0-1.637.678l6.643,16.037-6.059-1.756a.885.885,0,0,0-1.022.424l-3.043,5.526L26.433,35.369a17.86,17.86,0,1,0-17.7-6.878L.067,49.408A.886.886,0,0,0,1.132,50.6l7.149-2.072,3.59,6.52a.886.886,0,0,0,.776.458H12.7a.886.886,0,0,0,.769-.546L20.33,38.383a.886.886,0,0,0-1.637-.678l-6.16,14.872L9.49,47.051a.886.886,0,0,0-1.022-.424L2.409,48.384l7.6-18.36a17.8,17.8,0,0,0,13.033,5.669c.53,0,1.055-.025,1.574-.07L32.63,54.958a.885.885,0,0,0,.769.545h.049a.886.886,0,0,0,.776-.458l3.59-6.52L44.963,50.6a.886.886,0,0,0,1.065-1.19ZM6.972,17.846A16.075,16.075,0,1,1,23.047,33.921,16.093,16.093,0,0,1,6.972,17.846" transform="translate(0)" fill="#3ca078"/>
      <path id="Path_129999" data-name="Path 129999" d="M204.572,109.562a.886.886,0,0,0-.7-.6l-5.96-1-2.793-5.359a.886.886,0,0,0-1.571,0l-2.793,5.359-5.96,1a.886.886,0,0,0-.486,1.494l4.234,4.312-.89,5.977a.886.886,0,0,0,1.271.923l5.41-2.694,5.409,2.694a.886.886,0,0,0,1.271-.923l-.89-5.977,4.234-4.312A.886.886,0,0,0,204.572,109.562Zm-6.017,4.28a.886.886,0,0,0-.244.751l.705,4.733-4.283-2.133a.885.885,0,0,0-.79,0l-4.283,2.133.705-4.733a.885.885,0,0,0-.244-.751l-3.352-3.414,4.719-.792a.886.886,0,0,0,.639-.464l2.211-4.243,2.211,4.243a.886.886,0,0,0,.639.464l4.719.792Z" transform="translate(-171.29 -95.041)" fill="#3ca078"/>
      <path id="Path_130000" data-name="Path 130000" d="M153.752,66.26a.885.885,0,0,0-.994.762,12.532,12.532,0,1,1,0-3.31.886.886,0,1,0,1.756-.233,14.3,14.3,0,1,0,0,3.775A.886.886,0,0,0,153.752,66.26Z" transform="translate(-117.287 -47.52)" fill="#3ca078"/>
    </g>
  </g>
</svg>
