<svg xmlns="http://www.w3.org/2000/svg" width="48.459" height="46.393" viewBox="0 0 48.459 46.393">
  <g id="servIcon3" transform="translate(15.137 5.828)">
    <g id="Icon" transform="translate(-15.137 -5.828)">
      <path id="Path_129975" data-name="Path 129975" d="M16.133,32.066A2.066,2.066,0,1,1,14.066,30,2.066,2.066,0,0,1,16.133,32.066Z" transform="translate(3.964 10.76)" fill="none" stroke="#3ca078" stroke-linecap="round" stroke-linejoin="round" stroke-width="3"/>
      <path id="Path_129976" data-name="Path 129976" d="M32.633,32.066A2.066,2.066,0,1,1,30.566,30,2.066,2.066,0,0,1,32.633,32.066Z" transform="translate(10.194 10.76)" fill="none" stroke="#3ca078" stroke-linecap="round" stroke-linejoin="round" stroke-width="3"/>
      <path id="Path_129977" data-name="Path 129977" d="M1.5,1.5H9.765L15.3,29.168a4.133,4.133,0,0,0,4.133,3.327H39.52a4.133,4.133,0,0,0,4.133-3.327l3.306-17.336H11.832" fill="none" stroke="#3ca078" stroke-linecap="round" stroke-linejoin="round" stroke-width="3"/>
    </g>
  </g>
</svg>
