<svg xmlns="http://www.w3.org/2000/svg" width="28.624" height="44.211" viewBox="0 0 28.624 44.211">
  <g id="servIcon16" transform="translate(4.198 5.328)">
    <g id="Icon" transform="translate(-4.198 -5.328)">
      <path id="Path_130045" data-name="Path 130045" d="M160.625,355.154a.779.779,0,1,0,.779-.779.779.779,0,0,0-.779.779" transform="translate(-151.521 -334.289)" fill="#3ca078"/>
      <path id="Path_130046" data-name="Path 130046" d="M166.25,360.461a.461.461,0,1,0,.461-.461.447.447,0,0,0-.461.461" transform="translate(-156.827 -339.595)" fill="#3ca078"/>
      <path id="Path_130047" data-name="Path 130047" d="M212.5,355.154a.779.779,0,1,0,.779-.779.779.779,0,0,0-.779.779" transform="translate(-200.455 -334.289)" fill="#3ca078"/>
      <path id="Path_130048" data-name="Path 130048" d="M218.125,355.154a.461.461,0,1,0,.461-.461.447.447,0,0,0-.461.461m3.436.779a.779.779,0,1,1,.779-.779.786.786,0,0,1-.779.779" transform="translate(-205.761 -334.289)" fill="#3ca078"/>
      <path id="Path_130049" data-name="Path 130049" d="M270,360.4a.461.461,0,1,0,.461-.461.427.427,0,0,0-.461.461" transform="translate(-254.696 -339.531)" fill="#3ca078"/>
      <path id="Path_130050" data-name="Path 130050" d="M316.875,355.154a.779.779,0,1,0,.779-.779.779.779,0,0,0-.779.779" transform="translate(-298.914 -334.289)" fill="#3ca078"/>
      <path id="Path_130051" data-name="Path 130051" d="M315.19,360.4a.461.461,0,1,0,.461-.461.427.427,0,0,0-.461.461M317.634,378a2.909,2.909,0,0,1-1.523-.425,2.853,2.853,0,0,1,1.523-5.278,2.91,2.91,0,0,1,1.523.425,2.843,2.843,0,0,1,1.275,1.771,2.881,2.881,0,0,1-.354,2.161A2.822,2.822,0,0,1,317.634,378m-.886-1.275c.248-.354.815-1.169,1.027-1.523.213-.319.673-1.2.886-1.594l-.035-.035-.071-.035c-.248.354-.815,1.169-1.027,1.523-.213.319-.673,1.2-.886,1.594l.035.035Z" transform="translate(-296.91 -339.531)" fill="#3ca078"/>
      <path id="Path_130052" data-name="Path 130052" d="M105.811,578.208a2.546,2.546,0,1,0,.815,3.507,2.534,2.534,0,0,0-.815-3.507m-2.161,4.145-.354-.106-.248-.283s.744-1.382,1.027-1.807,1.169-1.7,1.169-1.7l.354.106.248.283s-.744,1.382-1.027,1.807c-.248.425-1.169,1.7-1.169,1.7m-12.08.886a2.567,2.567,0,0,1-1.169-.248,2.743,2.743,0,0,1-1.488-1.594,2.947,2.947,0,0,1,.071-2.2,2.88,2.88,0,0,1,2.621-1.7,2.567,2.567,0,0,1,1.169.248,2.879,2.879,0,0,1-1.2,5.491M90.9,582.07c.213-.39.673-1.275.815-1.63.177-.354.531-1.275.673-1.7l-.035-.035h-.071c-.213.39-.673,1.275-.815,1.63-.177.354-.531,1.275-.673,1.7l.071.035Z" transform="translate(-83.706 -544.767)" fill="#3ca078"/>
      <path id="Path_130053" data-name="Path 130053" d="M97.244,583.843a2.568,2.568,0,1,0,1.275,3.4A2.527,2.527,0,0,0,97.244,583.843ZM95.686,588.2l-.354-.071-.283-.248s.567-1.452.779-1.913.956-1.842.956-1.842l.354.071.283.248s-.567,1.452-.779,1.913c-.248.461-.956,1.842-.956,1.842" transform="translate(-88.317 -550.543)" fill="#3ca078"/>
      <path id="Path_130054" data-name="Path 130054" d="M17.677,44.211a.469.469,0,0,1-.461-.461v-.5h-5.81v.5a.469.469,0,0,1-.461.461h-5a.469.469,0,0,1-.461-.461v-.5H1.913A1.905,1.905,0,0,1,0,41.342V2.586A1.905,1.905,0,0,1,1.913.673H8.75V.461A.469.469,0,0,1,9.211,0h10.2a.469.469,0,0,1,.461.461V.638h6.837a1.905,1.905,0,0,1,1.913,1.913v38.72a1.905,1.905,0,0,1-1.913,1.913H23.133v.5a.469.469,0,0,1-.461.461h-5ZM1.984,39.464a1.648,1.648,0,0,0,1.63,1.63H24.975a1.648,1.648,0,0,0,1.63-1.63V27.7H1.984ZM26.64,26.853V4.393a1.648,1.648,0,0,0-1.63-1.63H3.613a1.648,1.648,0,0,0-1.63,1.63V26.817H26.64Z" fill="#3ca078"/>
    </g>
  </g>
</svg>
