<svg xmlns="http://www.w3.org/2000/svg" width="65.673" height="52.736" viewBox="0 0 65.673 52.736">
  <g id="servIcon26" transform="translate(12.203 16.381)">
    <rect id="Circle" width="44" height="44" rx="22" transform="translate(9.47 -16.381)" fill="#3ca078" opacity="0.2"/>
    <g id="Icon" transform="translate(-12.203 -9.327)">
      <path id="Path_130001" data-name="Path 130001" d="M98.313,240.487H79.179a.857.857,0,1,0,0,1.713H98.313a.857.857,0,1,0,0-1.713" transform="translate(-73.85 -226.755)" fill="#3ca078"/>
      <path id="Path_130002" data-name="Path 130002" d="M98.313,301.528H79.179a.857.857,0,0,0,0,1.713H98.313a.857.857,0,0,0,0-1.713" transform="translate(-73.85 -284.31)" fill="#3ca078"/>
      <path id="Path_130003" data-name="Path 130003" d="M98.313,362.57H79.179a.857.857,0,1,0,0,1.713H98.313a.857.857,0,1,0,0-1.713" transform="translate(-73.85 -341.867)" fill="#3ca078"/>
      <path id="Path_130004" data-name="Path 130004" d="M92.139,423.609H79.178a.857.857,0,0,0,0,1.713H92.139a.857.857,0,0,0,0-1.713" transform="translate(-73.849 -399.42)" fill="#3ca078"/>
      <path id="Path_130005" data-name="Path 130005" d="M331,462.728a3.88,3.88,0,1,0,3.88,3.88,3.885,3.885,0,0,0-3.88-3.88m0,6.047a2.167,2.167,0,1,1,2.167-2.167A2.169,2.169,0,0,1,331,468.775" transform="translate(-308.44 -436.305)" fill="#3ca078"/>
      <path id="Path_130006" data-name="Path 130006" d="M34.133,10.658a2.59,2.59,0,0,0,2.589-2.589V4.321A4.326,4.326,0,0,0,32.4,0H4.321A4.326,4.326,0,0,0,0,4.321V41.36a4.326,4.326,0,0,0,4.321,4.321H32.4a4.326,4.326,0,0,0,4.321-4.321V37.612a2.59,2.59,0,0,0-2.589-2.589h-4.34V10.658Zm-27.2,30.7a2.608,2.608,0,0,1-5.216,0V4.321a2.608,2.608,0,1,1,5.216,0v.151H4.321a.856.856,0,0,0-.857.857v2.74a2.59,2.59,0,0,0,2.589,2.589H28.079V35.024H6.053a2.59,2.59,0,0,0-2.589,2.589v2.74a.856.856,0,0,0,.857.857H6.929v.151Zm0-35.175V8.069a.876.876,0,0,1-1.752,0V6.186Zm0,33.31H5.178V37.612a.876.876,0,0,1,1.752,0V39.5Zm27.2-2.759a.877.877,0,0,1,.876.876v3.748A2.611,2.611,0,0,1,32.4,43.969H7.767a4.293,4.293,0,0,0,.876-2.608V37.612a2.577,2.577,0,0,0-.153-.876ZM8.489,8.945a2.577,2.577,0,0,0,.153-.876V4.321a4.292,4.292,0,0,0-.876-2.608H32.4a2.611,2.611,0,0,1,2.608,2.608V8.069a.877.877,0,0,1-.876.876Z" fill="#3ca078"/>
    </g>
  </g>
</svg>
