<svg xmlns="http://www.w3.org/2000/svg" width="42.562" height="43.884" viewBox="0 0 42.562 43.884">
  <g id="servIcon15" transform="translate(12.583 4.818)">
    <g id="Icon" transform="translate(-12.583 -4.818)">
      <path id="Path_130043" data-name="Path 130043" d="M54.607,231.065H24.723a4.621,4.621,0,0,0-4.616,4.617v5.645l1.355.194a1.6,1.6,0,0,1,0,3.168l-1.355.194v5.646a4.621,4.621,0,0,0,4.616,4.616H54.607a4.622,4.622,0,0,0,4.617-4.616v-5.755l-1.506-.07a1.6,1.6,0,0,1,0-3.2l1.505-.071v-5.754a4.622,4.622,0,0,0-4.617-4.617m3.037,8.864a3.18,3.18,0,0,0,0,6.352v4.248a3.037,3.037,0,0,1-3.037,3.037H24.723a3.037,3.037,0,0,1-3.037-3.037v-4.276a3.18,3.18,0,0,0,0-6.295v-4.276a3.037,3.037,0,0,1,3.037-3.037H54.607a3.037,3.037,0,0,1,3.037,3.037Z" transform="translate(-18.384 -211.26)" fill="#3ca078"/>
      <rect id="Rectangle_11663" data-name="Rectangle 11663" width="1.045" height="2.726" transform="translate(10.792 37.663)" fill="#3ca078"/>
      <rect id="Rectangle_11664" data-name="Rectangle 11664" width="1.045" height="2.725" transform="translate(10.792 32.876)" fill="#3ca078"/>
      <rect id="Rectangle_11665" data-name="Rectangle 11665" width="1.045" height="2.726" transform="translate(10.792 28.087)" fill="#3ca078"/>
      <rect id="Rectangle_11666" data-name="Rectangle 11666" width="1.045" height="2.726" transform="translate(10.792 23.3)" fill="#3ca078"/>
      <rect id="Rectangle_11667" data-name="Rectangle 11667" width="1.045" height="2.725" transform="matrix(0.874, -0.486, 0.486, 0.874, 7.962, 16)" fill="#3ca078"/>
      <path id="Path_130044" data-name="Path 130044" d="M41.983,15.344l-2.065-3.712-.734-1.317-1.35.671a1.6,1.6,0,0,1-1.554-2.793L37.562,7.4l-.734-1.317L34.764,2.371A4.621,4.621,0,0,0,28.485.582L2.371,15.111A4.622,4.622,0,0,0,.582,21.39l.075.135a6.423,6.423,0,0,1,1.056-1.492,3.037,3.037,0,0,1,1.426-3.542L29.254,1.962a3.037,3.037,0,0,1,4.131,1.177L35.449,6.85a3.179,3.179,0,0,0,3.088,5.55L40.6,16.113a3.032,3.032,0,0,1-.306,3.394A6.444,6.444,0,0,1,41.38,20.67a4.621,4.621,0,0,0,.6-5.325" transform="translate(0 0)" fill="#3ca078"/>
    </g>
  </g>
</svg>
