<svg xmlns="http://www.w3.org/2000/svg" width="38.518" height="43.393" viewBox="0 0 38.518 43.393">
  <g id="servIcon18" transform="translate(11.529 4.327)">
    <g id="Icon" transform="translate(-11.529 -4.327)">
      <path id="Path_130060" data-name="Path 130060" d="M38.518,8.787V3.634A3.639,3.639,0,0,0,34.883,0H3.634A3.638,3.638,0,0,0,0,3.634V8.787a1.757,1.757,0,0,0,1.263,1.68A3.612,3.612,0,0,0,0,13.2V39.76a3.637,3.637,0,0,0,3.634,3.632H34.883a3.639,3.639,0,0,0,3.635-3.634V13.2a3.609,3.609,0,0,0-1.263-2.731,1.758,1.758,0,0,0,1.263-1.68M1.643,3.634a1.993,1.993,0,0,1,1.99-1.991H34.882a1.994,1.994,0,0,1,1.992,1.991V8.787a.117.117,0,0,1-.117.117h-35a.115.115,0,0,1-.116-.117V3.634M36.875,39.76a1.994,1.994,0,0,1-1.992,1.991H3.634a1.993,1.993,0,0,1-1.991-1.989V13.2a1.993,1.993,0,0,1,1.991-1.991H34.883A1.994,1.994,0,0,1,36.875,13.2s0,26.561,0,26.561" fill="#3ca078"/>
      <path id="Path_130061" data-name="Path 130061" d="M96.027,63.512h7.852a1.35,1.35,0,0,0,1.349-1.349V60.757a1.351,1.351,0,0,0-1.349-1.349H96.027a1.351,1.351,0,0,0-1.349,1.349v1.406a1.351,1.351,0,0,0,1.349,1.349M95.5,60.758a.529.529,0,0,1,.527-.528h7.852a.528.528,0,0,1,.527.527v1.406a.528.528,0,0,1-.527.527H96.027a.528.528,0,0,1-.527-.527Z" transform="translate(-89.543 -56.186)" fill="#3ca078"/>
      <path id="Path_130062" data-name="Path 130062" d="M435.223,63.5h.7a1.351,1.351,0,0,0,1.35-1.349V60.741a1.351,1.351,0,0,0-1.35-1.349h-.7a1.35,1.35,0,0,0-1.348,1.349v1.406a1.351,1.351,0,0,0,1.348,1.349m-.526-2.755a.527.527,0,0,1,.526-.527h.7a.529.529,0,0,1,.528.527v1.406a.528.528,0,0,1-.528.527h-.7a.527.527,0,0,1-.526-.527Z" transform="translate(-410.341 -56.171)" fill="#3ca078"/>
      <path id="Path_130063" data-name="Path 130063" d="M529.553,63.5h.7a1.353,1.353,0,0,0,1.349-1.349V60.741a1.351,1.351,0,0,0-1.349-1.349h-.7a1.35,1.35,0,0,0-1.349,1.349v1.406a1.351,1.351,0,0,0,1.349,1.349m-.526-2.755a.528.528,0,0,1,.527-.527h.7a.529.529,0,0,1,.528.527v1.405a.53.53,0,0,1-.528.528h-.7a.528.528,0,0,1-.527-.527Z" transform="translate(-499.554 -56.171)" fill="#3ca078"/>
      <path id="Path_130064" data-name="Path 130064" d="M125.383,250.054h-.039a13.762,13.762,0,1,0-.006,2.361h.044a.938.938,0,0,0,.938-.939v-.485a.937.937,0,0,0-.938-.937M111.615,263.32A12.144,12.144,0,1,1,123.7,250.054h-2.489a9.684,9.684,0,1,0-.018,2.361h2.5a12.163,12.163,0,0,1-12.082,10.906m7.909-10.906h.84a8.839,8.839,0,1,1,.018-2.361h-.858a.938.938,0,0,0-.938.938v.485a.938.938,0,0,0,.938.938" transform="translate(-92.521 -224.513)" fill="#3ca078"/>
      <path id="Path_130065" data-name="Path 130065" d="M212.3,372.962a7.033,7.033,0,0,0-2.865,4,.41.41,0,0,0,.317.486.375.375,0,0,0,.085.009.411.411,0,0,0,.4-.326,6.27,6.27,0,0,1,2.525-3.495.411.411,0,0,0-.464-.678" transform="translate(-198.062 -352.664)" fill="#3ca078"/>
    </g>
  </g>
</svg>
