<svg xmlns="http://www.w3.org/2000/svg" width="36.383" height="43.393" viewBox="0 0 36.383 43.393">
  <g id="servIcon9" transform="translate(9.967 4.327)">
    <g id="Icon" transform="translate(-9.967 -4.327)">
      <path id="Path_129985" data-name="Path 129985" d="M199.2,358.546a20.31,20.31,0,0,0-4.137.384,18.649,18.649,0,0,1-2.487-3.31c2.041-5.867.748-7.535-.991-7.535-1.366,0-2.048,1.442-1.9,3.034a14.976,14.976,0,0,0,1.592,4.087,46.174,46.174,0,0,1-2.336,5.277,20.9,20.9,0,0,0-2.63.985c-3.26,1.516-3.522,3.54-2.844,4.4,1.288,1.629,4.032.224,6.786-4.7,1.885-.536,4.365-1.25,4.589-1.25a.364.364,0,0,1,.1.021c1.374,1.212,3,2.6,4.333,2.782,1.933.266,3.033-1.136,2.957-2.008s-.585-2.018-3.038-2.165m-12.2,5.312c-.8.947-2.085,1.856-2.54,1.554s-.531-1.175.493-2.161a8.57,8.57,0,0,1,2.994-1.592c.3-.113.38,0,.38.152a7.539,7.539,0,0,1-1.327,2.048m3.489-12.739c-.076-.949.113-1.858.909-1.971s1.175.8.872,2.274a12.168,12.168,0,0,1-.607,2.58c-.152.113-.3-.267-.3-.267a7.839,7.839,0,0,1-.872-2.616m.3,8.909c.416-.683,1.478-3.449,1.478-3.449.227.417,2.008,2.539,2.008,2.539s-2.73.608-3.487.911m8.263,1.212a10.062,10.062,0,0,1-3.07-1.517,9.12,9.12,0,0,1,3.033-.378c1.176.076,1.593.569,1.593,1.062s-.417.985-1.556.833" transform="translate(-173.23 -329.205)" fill="#3ca078"/>
      <path id="Path_129986" data-name="Path 129986" d="M35.594,9.125,27.26.79,26.47,0H8.356a7.287,7.287,0,0,0-7.278,7.28v.557H0v8.707H1.078V36.114a7.287,7.287,0,0,0,7.278,7.28H29.1a7.287,7.287,0,0,0,7.28-7.28V9.915ZM29.1,40.7H8.356a4.583,4.583,0,0,1-4.584-4.584V16.545H17.1V7.838H3.772V7.281A4.584,4.584,0,0,1,8.356,2.7H24.708V7.857a3.82,3.82,0,0,0,3.82,3.819h5.16V36.114A4.584,4.584,0,0,1,29.1,40.7M3.961,14.077v-4.03a.129.129,0,0,1,.129-.129h1.28a1.584,1.584,0,0,1,.579.1A1.376,1.376,0,0,1,6.4,10.3a1.194,1.194,0,0,1,.291.434,1.423,1.423,0,0,1,.1.533,1.406,1.406,0,0,1-.1.537,1.244,1.244,0,0,1-.29.428,1.32,1.32,0,0,1-.451.282,1.612,1.612,0,0,1-.578.1H4.83v1.461a.129.129,0,0,1-.129.129H4.09a.129.129,0,0,1-.129-.129m3.949,0v-4.03a.129.129,0,0,1,.129-.129H9.454a1.741,1.741,0,0,1,.705.133,1.457,1.457,0,0,1,.538.424,1.258,1.258,0,0,1,.19.332,1.945,1.945,0,0,1,.1.373,3.155,3.155,0,0,1,.038.42c0,.144.006.3.006.462s0,.317-.006.461a3.183,3.183,0,0,1-.038.421,1.936,1.936,0,0,1-.1.373,1.252,1.252,0,0,1-.189.331,1.442,1.442,0,0,1-.538.425,1.731,1.731,0,0,1-.706.133H8.039a.129.129,0,0,1-.129-.129m6.745-2.382a.129.129,0,0,1,.129.129v.549a.129.129,0,0,1-.129.129H13.109v1.575a.129.129,0,0,1-.129.129h-.611a.129.129,0,0,1-.129-.129v-4.03a.129.129,0,0,1,.129-.129h2.344a.129.129,0,0,1,.129.129V10.6a.129.129,0,0,1-.129.129h-1.6v.97h1.546Z" transform="translate(0 -0.001)" fill="#3ca078"/>
      <path id="Path_129987" data-name="Path 129987" d="M89.988,198.66a.607.607,0,0,0,0-.8.618.618,0,0,0-.432-.142H89.05V198.8h.506a.618.618,0,0,0,.432-.142" transform="translate(-84.22 -186.989)" fill="#3ca078"/>
      <path id="Path_129988" data-name="Path 129988" d="M162.805,200.236a.625.625,0,0,0,.252-.177.683.683,0,0,0,.15-.382,8.066,8.066,0,0,0,0-1.452.683.683,0,0,0-.149-.382.631.631,0,0,0-.252-.177.954.954,0,0,0-.343-.057h-.607v2.685h.607a.962.962,0,0,0,.342-.057" transform="translate(-153.077 -186.89)" fill="#3ca078"/>
    </g>
  </g>
</svg>
