<svg xmlns="http://www.w3.org/2000/svg" width="37.21" height="43.085" viewBox="0 0 37.21 43.085">
  <g id="servIcon20" transform="translate(13.529 6.165)">
    <g id="Icon" transform="translate(-13.529 -6.165)">
      <path id="Path_130067" data-name="Path 130067" d="M73.707,90.909a.979.979,0,1,1-.979.979.979.979,0,0,1,.979-.979" transform="translate(-68.811 -86.013)" fill="#3ca078"/>
      <path id="Path_130068" data-name="Path 130068" d="M146.434,90.909a.979.979,0,1,1-.979.979.979.979,0,0,1,.979-.979" transform="translate(-137.621 -86.013)" fill="#3ca078"/>
      <path id="Path_130069" data-name="Path 130069" d="M219.162,90.909a.979.979,0,1,1-.979.979.979.979,0,0,1,.979-.979" transform="translate(-206.432 -86.013)" fill="#3ca078"/>
      <path id="Path_130070" data-name="Path 130070" d="M582.8,90.909a.979.979,0,1,1-.979.979.979.979,0,0,1,.979-.979" transform="translate(-550.484 -86.013)" fill="#3ca078"/>
      <path id="Path_130071" data-name="Path 130071" d="M34.272,0H2.938A2.885,2.885,0,0,0,0,2.938V37.21a2.885,2.885,0,0,0,2.938,2.938v1.958a.889.889,0,0,0,.294.685.889.889,0,0,0,.685.294H29.376a.979.979,0,1,0,0-1.958H4.9V39.168a.889.889,0,0,0-.294-.685.889.889,0,0,0-.685-.294H2.938a.925.925,0,0,1-.979-.979V2.938a.925.925,0,0,1,.979-.979H34.272a.925.925,0,0,1,.979.979V37.21a.925.925,0,0,1-.979.979H7.834a.979.979,0,1,0,0,1.958h24.48v1.958a.979.979,0,0,0,1.958,0V40.147A2.885,2.885,0,0,0,37.21,37.21V2.938A2.885,2.885,0,0,0,34.272,0" fill="#3ca078"/>
      <path id="Path_130072" data-name="Path 130072" d="M101.125,181.819H73.707a.925.925,0,0,0-.979.979v24.48a.925.925,0,0,0,.979.979h27.418a.925.925,0,0,0,.979-.979V182.8a.925.925,0,0,0-.979-.979m-.979,24.48H74.686V183.777h25.459V206.3Z" transform="translate(-68.811 -172.027)" fill="#3ca078"/>
      <path id="Path_130073" data-name="Path 130073" d="M150.351,418.181a4.9,4.9,0,1,0,4.9,4.9,4.848,4.848,0,0,0-4.9-4.9m0,7.834a2.938,2.938,0,1,1,2.938-2.938,2.885,2.885,0,0,1-2.938,2.938" transform="translate(-137.621 -395.659)" fill="#3ca078"/>
      <path id="Path_130074" data-name="Path 130074" d="M328.253,418.181a.979.979,0,0,0,0,1.958,2.938,2.938,0,0,1,0,5.875.979.979,0,0,0,0,1.959,4.9,4.9,0,0,0,0-9.792" transform="translate(-309.648 -395.659)" fill="#3ca078"/>
      <path id="Path_130075" data-name="Path 130075" d="M437.343,418.181a.979.979,0,0,0,0,1.958,2.938,2.938,0,0,1,0,5.875.979.979,0,0,0,0,1.959,4.9,4.9,0,0,0,0-9.792" transform="translate(-412.863 -395.659)" fill="#3ca078"/>
      <path id="Path_130076" data-name="Path 130076" d="M328.253,254.545a.925.925,0,0,0-.979.979v3.917a.979.979,0,1,0,1.958,0v-3.917a.925.925,0,0,0-.979-.979" transform="translate(-309.648 -240.836)" fill="#3ca078"/>
      <path id="Path_130077" data-name="Path 130077" d="M403.017,260.066l-1.958-3.917a.942.942,0,0,0-1.665.881l1.958,3.819a.941.941,0,0,0,.881.588c.2,0,.294,0,.392-.1a.864.864,0,0,0,.392-1.273" transform="translate(-377.753 -241.852)" fill="#3ca078"/>
      <path id="Path_130078" data-name="Path 130078" d="M222.625,255.014a1.031,1.031,0,0,0-1.273.392l-1.958,3.917a.991.991,0,0,0,.392,1.371c.1.1.2.1.392.1a.941.941,0,0,0,.881-.588l1.958-3.917a1.032,1.032,0,0,0-.392-1.273" transform="translate(-207.448 -241.208)" fill="#3ca078"/>
    </g>
  </g>
</svg>
