<svg xmlns="http://www.w3.org/2000/svg" width="47.217" height="46.819" viewBox="0 0 47.217 46.819">
  <g id="servIcon7" transform="translate(13.303 6.828)">
    <g id="Icon" transform="translate(-18.943 -12.468)">
      <path id="Path_129981" data-name="Path 129981" d="M86.816,68.819V53.483M58.333,68.819V60.055m0-8.764V38.146c0-6.2,0-9.3,1.925-11.221S65.282,25,71.479,25H73.67c6.2,0,9.3,0,11.221,1.925s1.925,5.024,1.925,11.221v6.573" transform="translate(-49.002 -17.86)" fill="none" stroke="#3ca078" stroke-linecap="round" stroke-miterlimit="133.333" stroke-width="3"/>
      <path id="Path_129982" data-name="Path 129982" d="M228.286,291.667,225,297.144h6.573l-3.286,5.477" transform="translate(-204.714 -266.999)" fill="none" stroke="#3ca078" stroke-linecap="round" stroke-linejoin="round" stroke-width="3"/>
      <line id="Line_7" data-name="Line 7" x1="32.864" transform="translate(7.14 50.96)" fill="none" stroke="#3ca078" stroke-linecap="round" stroke-miterlimit="133.333" stroke-width="3"/>
      <path id="Path_129983" data-name="Path 129983" d="M499.334,91.667l2.7,2.161c.3.242.453.362.59.485a6.573,6.573,0,0,1,2.175,4.526c.01.184.01.378.01.764v23.832a3.286,3.286,0,1,1-6.573,0v-.156a3.13,3.13,0,0,0-3.13-3.13h-3.443" transform="translate(-453.852 -80.145)" fill="none" stroke="#3ca078" stroke-linecap="round" stroke-miterlimit="133.333" stroke-width="3"/>
      <path id="Path_129984" data-name="Path 129984" d="M598.24,225h-3.286a3.286,3.286,0,0,0-3.286,3.286v5.3a3.286,3.286,0,0,0,2.247,3.118l4.326,1.442" transform="translate(-547.28 -204.714)" fill="none" stroke="#3ca078" stroke-linecap="round" stroke-miterlimit="133.333" stroke-width="3"/>
    </g>
  </g>
</svg>
