<svg xmlns="http://www.w3.org/2000/svg" width="38.76" height="43.393" viewBox="0 0 38.76 43.393">
  <g id="servIcon14" transform="translate(10.592 4.327)">
    <g id="Icon" transform="translate(-10.592 -4.327)">
      <path id="Path_130033" data-name="Path 130033" d="M173.493,159.026a11.184,11.184,0,0,0-17.627-9.14.668.668,0,1,0,.771,1.092,9.847,9.847,0,1,1,9.678,17.045.668.668,0,0,0-.4.61v2.021h-.8V161.6h1.195a2,2,0,0,0,1.341-3.495l-.527-.474a2,2,0,0,0-3.346,1.49v1.142h-2.951v-1.142a2,2,0,0,0-3.346-1.49l-.527.474A2,2,0,0,0,158.3,161.6H159.5v9.057h-.8v-2.021a.668.668,0,0,0-.4-.61,9.862,9.862,0,0,1-5.841-9,9.736,9.736,0,0,1,2.176-6.174.668.668,0,1,0-1.04-.839,11.185,11.185,0,0,0,3.765,17.044v1.6h-1.47a.668.668,0,0,0-.668.668v7.217a4.683,4.683,0,0,0,4.678,4.678h4.812a4.683,4.683,0,0,0,4.678-4.678v-1.871a.668.668,0,0,0-1.337,0v1.2H156.563v-2.317h9.668a.668.668,0,0,0,0-1.337h-9.668v-2.228h11.494V173.1a.668.668,0,0,0,1.337,0v-1.782a.668.668,0,0,0-.668-.668h-1.47v-1.6a11.2,11.2,0,0,0,6.237-10.032m-8.37.092h0a.668.668,0,0,1,1.115-.5l.527.474a.668.668,0,0,1-.447,1.165h-1.195ZM159.5,160.26H158.3a.672.672,0,0,1-.447-1.165l.527-.474a.672.672,0,0,1,1.115.5Zm8.492,18.948a3.347,3.347,0,0,1-3.274,2.673H159.9a3.347,3.347,0,0,1-3.274-2.673Zm-4.2-8.554h-2.951V161.6h2.951Z" transform="translate(-142.931 -139.825)" fill="#3ca078"/>
      <path id="Path_130034" data-name="Path 130034" d="M345.637,0a.668.668,0,0,0-.668.668V4.411a.668.668,0,0,0,1.337,0V.668A.668.668,0,0,0,345.637,0" transform="translate(-326.257)" fill="#3ca078"/>
      <path id="Path_130035" data-name="Path 130035" d="M175.6,49.791l-1.871-3.241a.668.668,0,0,0-1.157.668l1.871,3.241a.668.668,0,1,0,1.158-.668" transform="translate(-163.128 -43.709)" fill="#3ca078"/>
      <path id="Path_130036" data-name="Path 130036" d="M50.46,174.444l-3.241-1.871a.668.668,0,1,0-.668,1.157l3.241,1.871a.668.668,0,1,0,.668-1.157" transform="translate(-43.709 -163.127)" fill="#3ca078"/>
      <path id="Path_130037" data-name="Path 130037" d="M4.411,344.969H.668a.668.668,0,0,0,0,1.337H4.411a.668.668,0,0,0,0-1.337" transform="translate(0 -326.257)" fill="#3ca078"/>
      <path id="Path_130038" data-name="Path 130038" d="M50.726,483.29a.668.668,0,0,0-.913-.245l-3.241,1.871a.668.668,0,0,0,.668,1.158l3.241-1.871a.668.668,0,0,0,.245-.913" transform="translate(-43.731 -456.76)" fill="#3ca078"/>
      <path id="Path_130039" data-name="Path 130039" d="M588.211,484.916l-3.241-1.871a.668.668,0,1,0-.668,1.157l3.241,1.871a.668.668,0,1,0,.668-1.157" transform="translate(-552.293 -456.759)" fill="#3ca078"/>
      <path id="Path_130040" data-name="Path 130040" d="M625.355,344.969h-3.742a.668.668,0,0,0,0,1.337h3.742a.668.668,0,0,0,0-1.337" transform="translate(-587.263 -326.257)" fill="#3ca078"/>
      <path id="Path_130041" data-name="Path 130041" d="M588.455,172.818a.668.668,0,0,0-.913-.245l-3.241,1.871a.668.668,0,1,0,.668,1.158l3.241-1.871a.668.668,0,0,0,.245-.913" transform="translate(-552.292 -163.128)" fill="#3ca078"/>
      <path id="Path_130042" data-name="Path 130042" d="M485.829,46.306a.668.668,0,0,0-.913.245l-1.871,3.241a.668.668,0,0,0,1.157.668l1.871-3.241a.668.668,0,0,0-.245-.913" transform="translate(-456.759 -43.709)" fill="#3ca078"/>
    </g>
  </g>
</svg>
