<svg xmlns="http://www.w3.org/2000/svg" width="52.178" height="42.334" viewBox="0 0 52.178 42.334">
  <g id="servIcon11" transform="translate(17.888 3.985)">
    <g id="Icon" transform="translate(-17.888 -3.985)">
      <path id="Path_130027" data-name="Path 130027" d="M47.852,0H4.346A4.348,4.348,0,0,0,0,4.346V36.539a4.355,4.355,0,0,0,4.346,4.346H6A1.447,1.447,0,0,0,7.45,42.334h6.833a1.447,1.447,0,0,0,1.449-1.449H36.446A1.447,1.447,0,0,0,37.9,42.334h6.833a1.447,1.447,0,0,0,1.449-1.449h1.654a4.355,4.355,0,0,0,4.346-4.346V4.346A4.317,4.317,0,0,0,47.852,0m0,37.988H4.346A1.447,1.447,0,0,1,2.9,36.539V4.346A1.447,1.447,0,0,1,4.346,2.9h43.5A1.447,1.447,0,0,1,49.29,4.346V36.539h.01a1.447,1.447,0,0,1-1.449,1.449" fill="#3ca078"/>
      <path id="Path_130028" data-name="Path 130028" d="M599.807,94.368h-4.583a1.449,1.449,0,0,0,0,2.9h4.583a1.449,1.449,0,0,0,0-2.9" transform="translate(-555.048 -88.213)" fill="#3ca078"/>
      <path id="Path_130029" data-name="Path 130029" d="M599.807,179.125h-4.583a1.449,1.449,0,0,0,0,2.9h4.583a1.449,1.449,0,0,0,0-2.9" transform="translate(-555.048 -167.442)" fill="#3ca078"/>
      <path id="Path_130030" data-name="Path 130030" d="M599.807,263.725h-4.583a1.449,1.449,0,0,0,0,2.9h4.583a1.449,1.449,0,1,0,0-2.9" transform="translate(-555.048 -246.524)" fill="#3ca078"/>
      <path id="Path_130031" data-name="Path 130031" d="M599.807,348.483h-4.583a1.449,1.449,0,0,0,0,2.9h4.583a1.449,1.449,0,1,0,0-2.9" transform="translate(-555.048 -325.754)" fill="#3ca078"/>
      <path id="Path_130032" data-name="Path 130032" d="M95.776,81.607a15.115,15.115,0,1,0,15.115,15.115A15.134,15.134,0,0,0,95.776,81.607m-8.313,24.034c-.206-.2-.4-.39-.6-.6h.6Zm0-3.494h-2.61a12.088,12.088,0,0,1-1.192-3.966h3.8Zm0-6.874h-3.8a11.849,11.849,0,0,1,1.192-3.966h2.61Zm0-6.864h-.6c.2-.206.39-.4.6-.6Zm6.864,20.437a12.089,12.089,0,0,1-3.966-1.192v-2.61h3.966Zm0-6.7H90.361V98.181h3.966Zm0-6.874H90.361V91.307h3.966Zm0-6.864H90.361V85.8a12.09,12.09,0,0,1,3.966-1.192Zm9.772-.6c.206.2.4.39.6.6h-.6Zm0,3.494h2.61a12.089,12.089,0,0,1,1.192,3.966h-3.8Zm-2.9,16.348a12.089,12.089,0,0,1-3.966,1.192v-3.8H101.2Zm0-5.508H97.235V98.181H101.2Zm0-6.874H97.235V91.307H101.2Zm0-6.864H97.235v-3.8A12.09,12.09,0,0,1,101.2,85.8Zm2.9,17.232v-.6h.6c-.2.206-.39.411-.6.6m0-3.494V98.181h3.8a12.089,12.089,0,0,1-1.192,3.966Z" transform="translate(-75.4 -76.284)" fill="#3ca078"/>
    </g>
  </g>
</svg>
