<svg xmlns="http://www.w3.org/2000/svg" width="67.287" height="52.88" viewBox="0 0 67.287 52.88">
  <g id="servIcon22" transform="translate(13.816 16.381)">
    <rect id="Circle" width="44" height="44" rx="22" transform="translate(9.47 -16.381)" fill="#3ca078" opacity="0.2"/>
    <g id="Icon" transform="translate(-13.816 -4.327)">
      <path id="Path_129995" data-name="Path 129995" d="M317.45,214.787a4.181,4.181,0,1,0-4.181-4.181,4.186,4.186,0,0,0,4.181,4.181m0-5.848a1.667,1.667,0,1,1-1.667,1.667,1.669,1.669,0,0,1,1.667-1.667" transform="translate(-297.282 -195.891)" fill="#3ca078"/>
      <path id="Path_129996" data-name="Path 129996" d="M263.073,416.526a7.113,7.113,0,0,0-7.105,7.105v1.257h14.21v-1.257a7.113,7.113,0,0,0-7.105-7.105m-4.417,5.848a4.592,4.592,0,0,1,8.833,0Z" transform="translate(-242.905 -395.27)" fill="#3ca078"/>
      <path id="Path_129997" data-name="Path 129997" d="M38.814,7.109a19.191,19.191,0,0,1-3.121.257A20.252,20.252,0,0,1,21.073.939L20.168,0l-.905.939A20.253,20.253,0,0,1,4.642,7.366a19.192,19.192,0,0,1-3.121-.257L0,6.858.061,8.4A44.6,44.6,0,0,0,3.539,24.623a31.985,31.985,0,0,0,6.7,9.888,25.256,25.256,0,0,0,9.572,6.207l.36.108.36-.108A25.257,25.257,0,0,0,30.1,34.511a31.989,31.989,0,0,0,6.7-9.888A44.6,44.6,0,0,0,40.275,8.4l.061-1.541ZM28.425,32.63a24.193,24.193,0,0,1-8.26,5.554,23.942,23.942,0,0,1-8.156-5.455C8.141,28.881,3.461,21.816,2.651,9.787c.663.061,1.329.092,1.991.092A21.884,21.884,0,0,0,13.59,7.957a23.654,23.654,0,0,0,6.577-4.381,23.65,23.65,0,0,0,6.577,4.381A21.881,21.881,0,0,0,35.693,9.88c.662,0,1.327-.031,1.991-.092-.644,9.512-3.83,17.387-9.258,22.842" fill="#3ca078"/>
    </g>
  </g>
</svg>
