<svg xmlns="http://www.w3.org/2000/svg" width="38.292" height="43.085" viewBox="0 0 38.292 43.085">
  <g id="servIcon17" transform="translate(13.815 6.165)">
    <g id="Icon" transform="translate(-13.815 -6.165)">
      <path id="Path_130055" data-name="Path 130055" d="M34.712,0H3.6A3.6,3.6,0,0,0,0,3.588V38.3a3.6,3.6,0,0,0,3.588,3.588H6.54a1.2,1.2,0,0,0,1.2,1.2h2.715a1.2,1.2,0,0,0,1.2-1.2h15a1.2,1.2,0,0,0,1.2,1.2h2.715a1.2,1.2,0,0,0,1.2-1.2H34.7A3.6,3.6,0,0,0,38.292,38.3V3.588A3.572,3.572,0,0,0,34.712,0m1.2,38.318a1.193,1.193,0,0,1-1.2,1.188H3.6a1.2,1.2,0,0,1-1.2-1.2v-16.6H3.9a1.2,1.2,0,1,0,0-2.392H2.392V16.924h3.9a1.2,1.2,0,0,0,0-2.392h-3.9V11.562H35.909Zm.008-29.156H2.392V3.588a1.208,1.208,0,0,1,1.2-1.2H34.721a1.2,1.2,0,0,1,1.2,1.2Z" fill="#3ca078"/>
      <path id="Path_130056" data-name="Path 130056" d="M168.481,269.66a10.655,10.655,0,1,0,10.655,10.655,10.662,10.662,0,0,0-10.655-10.655m0,18.917a8.262,8.262,0,1,1,8.262-8.262,8.272,8.272,0,0,1-8.262,8.262" transform="translate(-149.326 -255.137)" fill="#3ca078"/>
      <path id="Path_130057" data-name="Path 130057" d="M334.647,358.653a1.2,1.2,0,1,0,0,2.392,3.474,3.474,0,0,1,3.47,3.47,1.2,1.2,0,1,0,2.392,0,5.863,5.863,0,0,0-5.862-5.862" transform="translate(-315.492 -339.337)" fill="#3ca078"/>
      <path id="Path_130058" data-name="Path 130058" d="M92.1,87.1H89.4a1.2,1.2,0,0,0,0,2.392h2.7a1.2,1.2,0,1,0,0-2.392" transform="translate(-83.456 -82.413)" fill="#3ca078"/>
      <path id="Path_130059" data-name="Path 130059" d="M265.2,87.1h-2.7a1.2,1.2,0,0,0,0,2.392h2.7a1.2,1.2,0,1,0,0-2.392" transform="translate(-247.238 -82.413)" fill="#3ca078"/>
    </g>
  </g>
</svg>
