<svg xmlns="http://www.w3.org/2000/svg" width="48.946" height="46.394" viewBox="0 0 48.946 46.394">
  <g id="servIcon4" transform="translate(14.301 5.828)">
    <path id="Icon" d="M48.648,43.543H38.438a5.105,5.105,0,0,0-5.105,5.105V71.621a5.105,5.105,0,0,0,5.105,5.105H74.174a5.105,5.105,0,0,0,5.105-5.105V48.648a5.105,5.105,0,0,0-5.105-5.105H63.964m-15.315,0V38.438a5.105,5.105,0,0,1,5.105-5.105h5.105a5.105,5.105,0,0,1,5.105,5.105v5.105m-15.315,0H63.964" transform="translate(-46.134 -37.661)" fill="none" stroke="#3ca078" stroke-linecap="round" stroke-linejoin="round" stroke-width="3"/>
  </g>
</svg>
