<svg xmlns="http://www.w3.org/2000/svg" width="167.169" height="117.652" viewBox="0 0 167.169 117.652">
  <g id="ShapesReq" transform="translate(0.513 0.637)">
    <path id="Shape" d="M4.152,8.812a20.46,20.46,0,0,1-3.77-3.8L0,4.5.535,4.16A30.134,30.134,0,0,1,10.922.093L11.5,0l.1.581c.026.163.627,4.064-1.515,11.05l-.206.671-.625-.317A30.73,30.73,0,0,1,4.152,8.812Z" transform="translate(156.111 83.934) rotate(-121)" fill="#d6eef3"/>
    <path id="Shape-2" data-name="Shape" d="M7.329,6.163A36.112,36.112,0,0,0,.676,12.871l-.676.9.944.607a53.058,53.058,0,0,0,18.311,7.161l1.027.164.169-1.026c.047-.287,1.111-7.169-2.659-19.49L17.43,0l-1.1.56A54.31,54.31,0,0,0,7.329,6.163Z" transform="translate(121.5 113.247) rotate(-80)" fill="#eaf7f9"/>
    <g id="Shape-3" data-name="Shape" transform="translate(0 8.627)" opacity="0.06">
      <path id="Path_1337" data-name="Path 1337" d="M3709.315,203.712a33.426,33.426,0,0,0,2.873,8.2l.468.922.88-.535a48.518,48.518,0,0,0,13.261-12.218l.548-.783-.784-.559c-.217-.155-5.478-3.814-17.169-5.682l-1.123-.179.024,1.144A50.244,50.244,0,0,0,3709.315,203.712Z" transform="translate(-3708.269 -140.992)" fill="none" stroke="#002a33" stroke-width="1"/>
      <path id="Path_1344" data-name="Path 1344" d="M3734.529,180.373a24.311,24.311,0,0,0,.833-6.27v-.753l-.747.053A35.078,35.078,0,0,0,3722,176.921l-.612.324.324.619c.091.172,2.3,4.291,9.261,9.384l.668.49.362-.747A36.143,36.143,0,0,0,3734.529,180.373Z" transform="translate(-3700.57 -152.628)" fill="none" stroke="#002a33" stroke-width="1"/>
      <path id="Path_1345" data-name="Path 1345" d="M3738.31,193.841a12.688,12.688,0,0,0,3.31-.373l.386-.1-.125-.379a18.783,18.783,0,0,0-3.413-6.067l-.245-.274-.275.247a16.844,16.844,0,0,0-3.608,5.988l-.166.407.427.092A18.922,18.922,0,0,0,3738.31,193.841Z" transform="translate(-3693.036 -150.387)" fill="none" stroke="#002a33" stroke-width="1"/>
      <path id="Path_1346" data-name="Path 1346" d="M3730.9,164.194a13.051,13.051,0,0,0,1.152-3.223l.084-.4-.4-.056a19,19,0,0,0-7.079.434l-.36.1.1.364a17.239,17.239,0,0,0,3.857,6.022l.3.335.27-.361A19.58,19.58,0,0,0,3730.9,164.194Z" transform="translate(-3698.866 -160.364)" fill="none" stroke="#002a33" stroke-width="1"/>
    </g>
    <g id="Shape-4" data-name="Shape" transform="translate(4.761 0)">
      <path id="Union_14" data-name="Union 14" d="M3.917,79.551a33.344,33.344,0,0,1-2.872-8.2A50.148,50.148,0,0,1,.023,61.661L0,60.518l1.121.178c11.693,1.868,16.953,5.528,17.169,5.683l.785.558-.547.783A48.539,48.539,0,0,1,5.266,79.939l-.879.534ZM46.932,55.3A20.7,20.7,0,0,1,49.6,47.156l.26-.37.367.259a22.926,22.926,0,0,1,5.739,6.3l.251.417-.433.223a15.649,15.649,0,0,1-3.85,1.363,23.18,23.18,0,0,1-4.551.485l-.537.008ZM36.752,40.057c-6.964-5.094-9.17-9.211-9.26-9.384l-.324-.62.612-.323a35.078,35.078,0,0,1,12.612-3.518l.746-.054v.754a24.34,24.34,0,0,1-.831,6.269A36.214,36.214,0,0,1,37.782,39.8l-.362.747ZM32.717,9.688A21.1,21.1,0,0,1,25.3,4.99L25,4.638l.348-.3A23.458,23.458,0,0,1,33.018.148L33.495,0l.112.488a16.066,16.066,0,0,1,.383,4.2,24.288,24.288,0,0,1-.65,4.676l-.114.543Z" fill="none" stroke="#c1e6ee" stroke-width="1"/>
    </g>
  </g>
</svg>
