<svg xmlns="http://www.w3.org/2000/svg" width="21.301" height="24.851" viewBox="0 0 21.301 24.851">
  <path id="Word" d="M22.928,7.473a3.227,3.227,0,0,1,.666,1.054,3.2,3.2,0,0,1,.277,1.22V25.723a1.326,1.326,0,0,1-1.331,1.331H3.9a1.326,1.326,0,0,1-1.331-1.331V3.535A1.326,1.326,0,0,1,3.9,2.2H16.327a3.2,3.2,0,0,1,1.22.277,3.227,3.227,0,0,1,1.054.666ZM16.771,4.089V9.3h5.214a1.515,1.515,0,0,0-.305-.569L17.34,4.395a1.515,1.515,0,0,0-.569-.305ZM22.1,25.279v-14.2H16.327A1.326,1.326,0,0,1,15,9.747V3.979H4.346v21.3H22.1ZM5.8,12.854v1.484h.971L9.047,23.5h2.2l1.775-6.726a3.773,3.773,0,0,0,.166-.971h.055l.042.333a2.7,2.7,0,0,1,.049.277,2.24,2.24,0,0,0,.076.361L15.19,23.5h2.2l2.274-9.166h.971V12.854H16.48v1.484h1.248l-1.373,6.074a3.874,3.874,0,0,0-.1.638l-.028.291h-.055l-.042-.291q-.014-.069-.055-.291t-.069-.347l-2-7.558H12.43l-2,7.558q-.028.125-.062.34t-.049.3l-.056.291h-.055l-.028-.291a3.874,3.874,0,0,0-.1-.638L8.714,14.338H9.962V12.854H5.8Z" transform="translate(-2.571 -2.203)" fill="#3ca078"/>
</svg>
