<svg id="cancel" xmlns="http://www.w3.org/2000/svg" width="24" height="24" viewBox="0 0 24 24">
  <path id="Combined_Shape" data-name="Combined Shape" d="M3.515,20.486A12,12,0,0,1,20.486,3.515,12,12,0,0,1,3.515,20.486ZM2,12A10,10,0,1,0,12,2,10.011,10.011,0,0,0,2,12Zm12.687,4.09-.094-.083L12,13.415,9.407,16.007a1,1,0,0,1-1.5-1.32l.083-.094L10.586,12,7.993,9.407a1,1,0,0,1,1.32-1.5l.094.083L12,10.586l2.593-2.593a1,1,0,0,1,1.5,1.32l-.083.094L13.415,12l2.593,2.593a1,1,0,0,1-1.32,1.5Z" fill="#3ca078"/>
</svg>
