<svg xmlns="http://www.w3.org/2000/svg" width="24" height="24.379" viewBox="0 0 24 24.379">
  <g id="SAR" transform="translate(3 0.25)">
    <rect id="Path" width="24" height="24" transform="translate(-3)" fill="none"/>
    <g id="Patterns-EN-_-AR" data-name="Patterns-EN-&amp;-AR" transform="translate(-2.39 0)">
      <g id="S03.03-Web-EN-Service-card---steps" transform="translate(0 0)">
        <g id="Group-17" transform="translate(0 0)">
          <g id="Group-15" transform="translate(0)">
            <g id="Group-8" transform="translate(0 0)">
              <g id="icon_30_info_price" data-name="icon/30/info/price">
                <g id="riyal">
                  <path id="f2_155" d="M25.378,20.083h0a3.632,3.632,0,0,1-.891,2.4h0a15.624,15.624,0,0,1-2.87,1.953h0a21.877,21.877,0,0,1-3.788,1.887h0q-.039.013-3.394.564h0q-1.35.223-1.6.223h0q-.1,0-.1-.026h0a6.446,6.446,0,0,1,1.533-.668h0q2.7-1,4.3-1.73h0a37.872,37.872,0,0,0,4.364-2.333h0q1.966-1.219,1.966-1.533h0q0-.065-.865-1.8h0a8.652,8.652,0,0,1-.668-1.677h0a.2.2,0,0,1-.131-.184h0a5.52,5.52,0,0,1,.1-.707h0q.118-.629.2-.629h0a3.013,3.013,0,0,1,.459.459h0q1.022,1.127.943,1.206h0q-.065.065-.655-.2h0a7.73,7.73,0,0,0,.6,1.258h0A3.466,3.466,0,0,1,25.378,20.083Z" transform="translate(-2.598 -3.229)" fill="#3ca078" stroke="#3ca078" stroke-width="0.5"/>
                  <path id="path_ecc6832c-40b2-4495-b756-438b4260d30e" d="M21.875,17.635a2.132,2.132,0,0,1-.655,1.651,1.649,1.649,0,0,1-1.14.485q-.184,0-.184-.367,0-.944.5-.944a1.42,1.42,0,0,0,.642-.157q.314-.157.314-.341a1.616,1.616,0,0,0-.314-.727l-.315-.491a6.756,6.756,0,0,1,.137-.721,3.172,3.172,0,0,1,.164-.629q.118,0,.459.707A3.531,3.531,0,0,1,21.875,17.635ZM21.5,21.6l-.655,1.18-1.337-.786-.55.983-1.363-.8L18.247,21l1.337.786.55-.983Z" transform="translate(-3.589 -3.141)" fill="#3ca078" stroke="#3ca078" stroke-width="0.5"/>
                  <path id="path_1622554124479" d="M20,15.333q.157,0,.157.341,0,.943-.485.943-.93,0-1.428-1.179A13.179,13.179,0,0,1,17.5,11.9q-.826-8.348-1.9-10.523a2.894,2.894,0,0,1,.177-.714A3.791,3.791,0,0,1,16,0a2.2,2.2,0,0,1,.315.655,12.167,12.167,0,0,1,.485,1.52,48.319,48.319,0,0,1,.917,5.268q.262,2.228.537,4.456a8.944,8.944,0,0,0,.642,2.647,1.193,1.193,0,0,0,1.1.786" transform="translate(-3.182)" fill="#3ca078" stroke="#3ca078" stroke-width="0.5"/>
                  <path id="f2_195" d="M11.965,17.285h0a4.375,4.375,0,0,1-.753,3.008,12.514,12.514,0,0,1-3.139,2.392h0A9.906,9.906,0,0,1,3.3,24.349h0q-2.818,0-3.25-3.04h0A4.221,4.221,0,0,1,0,20.666H0a7.419,7.419,0,0,1,.642-3.054h0q.21-.432.354-.432H1q.053,0,.053.1h0a1.663,1.663,0,0,1-.079.406h0a6.133,6.133,0,0,0-.38,2.044h0q0,3.185,3.276,3.185h0A10.006,10.006,0,0,0,8.4,21.256h0q2.608-1.494,2.844-2.11h0a2.157,2.157,0,0,0,.052-.708h0q-.079-1.52-1-6.657h0q-.826-4.849-.826-5.688h0q-.249-.183-.2-.288h0q.118-.3.354-.865h0q.184-.406.249-.406h0a14.641,14.641,0,0,1,.773,1.756h0q.327.747.537,1.363h0a.823.823,0,0,0-.052.157h0q-.079,0-.275-.21h0q-.184-.184-.485-.511h0Q11.139,11.217,11.965,17.285Z" transform="translate(0 -0.925)" fill="#3ca078" stroke="#3ca078" stroke-width="0.5"/>
                </g>
              </g>
            </g>
          </g>
        </g>
      </g>
    </g>
  </g>
</svg>
