<svg xmlns="http://www.w3.org/2000/svg" width="26" height="24" viewBox="0 0 26 24">
  <g id="users" transform="translate(3)">
    <rect id="Path" width="24" height="24" transform="translate(-3)" fill="none"/>
    <path id="Path_129921" data-name="Path 129921" d="M-17.266-23.766a5.31,5.31,0,0,0-2.742,1.523,5.627,5.627,0,0,0-1.27,1.777,5.167,5.167,0,0,0-.355,1.98,5.23,5.23,0,0,0,1.523,3.859,5.42,5.42,0,0,0,2.488,1.473,5.377,5.377,0,0,0,2.742,0,5.42,5.42,0,0,0,2.488-1.473,5.106,5.106,0,0,0,1.523-3.758,5.464,5.464,0,0,0-.355-2.082,5.627,5.627,0,0,0-1.27-1.777A4.992,4.992,0,0,0-17.266-23.766Zm7.82.406q-.2.3-.254.406a.964.964,0,0,0,0,.457,1.05,1.05,0,0,0,.3.609,2.232,2.232,0,0,0,.813.457,3.268,3.268,0,0,1,1.066.66,3.082,3.082,0,0,1,.762,1.016,2.864,2.864,0,0,1,.2,1.371,3.9,3.9,0,0,1-.3,1.371A3.082,3.082,0,0,1-7.617-16a3.148,3.148,0,0,1-1.117.66q-1.016.406-1.016,1.117a1.092,1.092,0,0,0,.2.609,1.025,1.025,0,0,0,.457.406,1.247,1.247,0,0,0,.457.1l.609-.2a5.18,5.18,0,0,0,1.777-1.066A6.055,6.055,0,0,0-4.875-16.1a5.081,5.081,0,0,0,.508-2.387,5.125,5.125,0,0,0-1.727-3.859,4.641,4.641,0,0,0-1.219-.863,3.8,3.8,0,0,0-1.117-.406,1.471,1.471,0,0,0-.559,0A2.227,2.227,0,0,0-9.445-23.359Zm-5.383,2.031A3.321,3.321,0,0,1-13.3-19.8a4.7,4.7,0,0,1,.152.559,4.207,4.207,0,0,1,.051.762,3.606,3.606,0,0,1-.2,1.32,4.041,4.041,0,0,1-.609,1.016,3.389,3.389,0,0,1-2.336.914,3.389,3.389,0,0,1-2.336-.914,4.041,4.041,0,0,1-.609-1.016,3.28,3.28,0,0,1-.2-1.219,3.087,3.087,0,0,1,2.133-3.148,4.3,4.3,0,0,1,1.219-.051A3.3,3.3,0,0,1-14.828-21.328Zm-6.906,10.664a5.066,5.066,0,0,0-2.641,1.422A5.041,5.041,0,0,0-25.8-6.7,8.175,8.175,0,0,0-26-4.469V-3.25a2.444,2.444,0,0,0,.254.66.853.853,0,0,0,.559.355,1,1,0,0,0,.762-.1.937.937,0,0,0,.457-.508,8.061,8.061,0,0,0,.1-1.727l.1-1.422a1.637,1.637,0,0,1,.2-.711,3.172,3.172,0,0,1,1.625-1.625l.508-.3h10.461l.406.3A3.172,3.172,0,0,1-8.937-6.7a1.637,1.637,0,0,1,.2.711l.1,1.422a8.061,8.061,0,0,0,.1,1.727.937.937,0,0,0,.457.508,1,1,0,0,0,.762.1.853.853,0,0,0,.559-.355A2.807,2.807,0,0,0-6.5-3.148v-1.32a8.954,8.954,0,0,0-.355-2.844,5.16,5.16,0,0,0-1.27-1.93,5.066,5.066,0,0,0-2.641-1.422,38.851,38.851,0,0,0-5.535-.2A36.281,36.281,0,0,0-21.734-10.664Zm16.859.1a1.278,1.278,0,0,0-.508.711,1.02,1.02,0,0,0,.152.813,1.088,1.088,0,0,0,.711.508,2.321,2.321,0,0,1,.914.457,3.012,3.012,0,0,1,.66.66,2.035,2.035,0,0,1,.609,1.066,15.219,15.219,0,0,1,.152,1.879,8.314,8.314,0,0,0,.152,1.625.937.937,0,0,0,.457.508,1,1,0,0,0,.762.1.8.8,0,0,0,.559-.406A4.653,4.653,0,0,0,0-3.25V-4.773L-.1-6.3a2.5,2.5,0,0,0-.2-.914,5.854,5.854,0,0,0-1.27-2.031,4.226,4.226,0,0,0-1.98-1.219A1.847,1.847,0,0,0-4.875-10.562Z" transform="translate(23 25.034)" fill="#3ca078"/>
  </g>
</svg>
